<mxfile host="Electron" agent="Mozilla/5.0 (X11; Linux x86_64) AppleWebKit/537.36 (KHTML, like Gecko) draw.io/26.1.1 Chrome/132.0.6834.210 Electron/34.3.3 Safari/537.36" version="26.1.1">
  <diagram name="Seite-1" id="DZrBxqbCEn02boqov7DO">
    <mxGraphModel dx="2060" dy="1189" grid="1" gridSize="10" guides="1" tooltips="1" connect="1" arrows="1" fold="1" page="1" pageScale="1" pageWidth="827" pageHeight="1169" math="0" shadow="0">
      <root>
        <mxCell id="0" />
        <mxCell id="1" parent="0" />
        <mxCell id="plmwb09Iaf8sxk6U5GsG-1" value="" style="rounded=0;whiteSpace=wrap;html=1;strokeColor=none;" parent="1" vertex="1">
          <mxGeometry x="560" y="160" width="1920" height="660" as="geometry" />
        </mxCell>
        <mxCell id="IjYcRYmzKVPZ65RbfqFZ-7" value="" style="shape=image;verticalLabelPosition=bottom;labelBackgroundColor=default;verticalAlign=top;aspect=fixed;imageAspect=0;image=data:image/png,iVBORw0KGgoAAAANSUhEUgAAB4AAAAUACAYAAACmjU83AAAABGdBTUEAALGPC/xhBQAAACBjSFJNAAB6JgAAgIQAAPoAAACA6AAAdTAAAOpgAAA6mAAAF3CculE8AAAABmJLR0QA/wD/AP+gvaeTAAAAB3RJTUUH6AcGEjIeqVWujwAAgABJREFUeNrs3Xm4JVV9LuCvZ5puoAGZQYIjoiKiRHGIA0aB63gdokYkOKESx3uTkGsSxQiiooJRDDgQBXEiYARbBkEFRQZpZWoakLmbuQea7tPD6XPO/aOOSatAD3vtXbtqv+/z7KcR2lVVv7V2nVP11VqVAAAAAAAAAAAAAAAAAAAAAAAAAAAAAAAAAAAAAAAAAAAAAAAAAAAAAAAAAAAAAAAAAAAAAAAAAAAAAAAAAAAAAAAAAAAAAAAAAAAAAAAAAAAAAAAAAAAAAAAAAAAAAAAAAAAAAAAAAAAAAAAAAAAAAAAAAAAAAAAAAAAAAAAAAAAAAAAAAAAAAAAAAAAAAAAAAAAAAAAAAAAAAAAAAAAAAAAAAAAAAAAAAAAAAAAAAAAAAAAAAAAAAAAAAAAAAAAAAAAAAAAAAAAAAAAAAAAAAAAAAAAAAAAAAAAAAAAAAAAAAAAAAAAAAAAAAAAAAAAAAAAAAAAAAAAAAAAAAAAAAAAAAAAAAAAAAAAAAAAAAAAAAAAAAAAAAAAAAAAAAAAAAAAAAAAAAAAAAAAAAAAAAAAAAAAAAAAAAAAAAAAAAAAAAAAAAAAAAAAAAAAAAAAAAAAAAAAAAAAAAAAAAAAAAAAAAAAAAAAAAAAAAAAAAAAAAAAAAAAAAAAAAAAAAAAAAAAAAAAAAAAAAAAAAAAAAAAAAAAAAAAAAAAAAAAAAAAAAAAAAAAAAAAAAAAAAAAAAAAAAAAAAAAAAAAAAAAAAAAAAAAAAAAAAAAAAAAAAAAAAAAAAAAAAAAAAAAAAAAAAAAAAAAAAAAAAAAAAAAAAAAAAAAAAAAAAAAAAAAAAAAAAAAAAAAAAAAAAAAAAAAAAAAAAAAAAAAAAAAAAAAAAAAAAAAAAAAAAAAAAAAAAAAAAAAAAAAAAAAAAAAAAAAAAAAAAAAAAAAAAAAAAAAAAAAAAAAAAAAAAAAAAAAAAAAAAAAAAAAAAAAAAAAAAAAAAAAAAAAAAAAAAAAAAAAAAAAAAAAAAAAAAAAAAAAAAAAAAAAAAAAAAAAAAAAAAAAAAAAAAAAAAAAAAAAAAAAAAAAAAAAAAAAAAAAAAAAAAAAAAAAAAAAAAAAAAAAAAAAAAAAAAAAAAAAAAAAAAAAAAAAAAAAAAAAAAAAAAAAAAAAAAAAAAAAAAAAAAAAAAAAAAAAAAAAAAAAAAAAAAAAAAAAAAAAAAAAAAAAAAAAAAAAAAAAAAAAAAAAAAAAAAAAAAAAAAAAAAAAAAAAAAAAAAAAAAAAAAAAAAAAAAAAAAAAAAAAAAAAAAAAAAAAAAAAAAAAAAAAAAAAAAAAAAAAAAAAAAAAAAAAAAAAAAAAAAAAAAAAAAAAAAAAAAAAAAAAAAAAAAAAAAAAAAAAAAAAAAAAAAAAAAAAAAAAAAAAAAAAAAAAAAAAAAAAAAAAAAAAAAAAAAAAAAAAAAAAAAAAAAAAAAAAAAAAAAAAAAAAAAAAAAAAAAAAAAAAAAAAAAAAAAAAAAAAAAAAAAAAAAAAAAAAAAAAAAAAAAAAAAAAAAAAAAAAAAAAAAAAAAAAAAAAAAAAAAAAAAAAAAAAAAAAAAAAAAAAAAAAAAAAAAAAAAAAAAAAAAAAAAAAAAAAAAAAAAAAAAAAAAAAAAAAAAAAAAAAAAAAAAAAAAAAAAAAAAAAAAAAAAAAAAAAAAAAAAAAAAAAAAAAAAAAAAAAAAAAAAAAAAAAAAAAAAAAAAAAAAAAAAAAAAAAAAAAAAAAAAAAAAAAAAAAAAAAAAAAAAAAAAAAAAAAAAAAAAAAAAAAAAAAAAAAAAAAAAAAAAAAAAAAAAAAAAAAAAAAAAAAAAAAAAAAAAAAAAAAAAAAAAAAAAAAAAAAAAAAAAAAAAAAAAAAAAAAAAAAAAAAAAAAAAAAAAAAAAAAAAAAAAAAAAAAAAAAAAAAAAAAAAAAAAAAAAAAAAAAAAAAAAAAAAAAAAAAAAAAAAAAAAAAAAAAAAAAAAAAAAAAAAAAAAAAAAAAAAAAAAAAAAAAAAAAAAAAAAAAAAAAAAAAAAAAAAAAAAAAAAAAAAAAAAAAAAAAAAAAAAAAAAAAAAAAAAAAAAAAAAAAAAAAAAAAAAAAAAAAAAAAAAAAAAAAAAAAAAAAAAAAAAAAAAAAAAAAAAAAAAAAAAAAAAAAAAAAAAAAAAAAAAAAAAAAAAAAAAAAAAAAAAAAAAAAAAAAAAAAAAAAAAAAAAAAAAAAAAAAAAAAAAAAAAAAAAAAAAAAAAAAAAAAAAAAAAAAAAAAAAAAAAAAAAAAAAAAAAAAAAAAAAAAAAAAAAAAAAAAAAAAAAAAAAAAAAAAAAAAAAAAAAAAAAAAAAAAAAAAAAAAAAAAAAAAAAAAAAAAAAAAAAAAAAAAAAAAAAAAAAAAAAAAAAAAAAAAAAAAAAAAAAAAAAAAAAAAAAAAAAAAAAAAAAAAAAAAAsAEmKAEAAAANNinJTkl2TrLdWn/OTDI9ydQkM9b6+w8mWZNkRZKhJPeOfxaM/zl//O9Ar01IssP4GN4hyS7jY3nG+GfK+Lh+qLG8Isk9a43he5PckWS5sgIAwGBeXAAAAEATTEny7CTPTPKUJHsmeXKqoLek25PMTXL1+J+XJrlO+SloYpK9kuwz/ueeSZ6aZLPC27k1yTXjn6vHx/JNyg8AAO0mAAYAmu4JSf6PMmy0pUn+ThkobKskR6YKOEp4f5JVyjqwnpzkgCT7JXl+/nA2by/dneSnSX6W5Jwkt+kaNtBO42P5L5O8OMmjatqP25JckOT8JOcmuU/X0GW7JPm/STbpoI3lST6slAAAAACD4RVJxnw2+nOXIUQXfLvwOJ2hpANn5yQfSPKLPj5//np8H7fXXTyC6Ulen+TMJMN9OI7XJDkvyVvzh8tLQymvT7KwwFi9XykBAAAABsdbIsQVANNPXt2FcSoAHhwvSTW7drRB59HhJKcn2Vf3sZbHJTkx1azFpozlB5N8OcljdB8FzEpySsHxKQAGAAAAGCB/GyGuAJh+sU2SeyIAZsNMTPJXSa5owTn1wiQv16UD7WlJvpNqZm1Tx/FwkpNTLb8OG+NlSeYXHpcCYAAAAIAB8k8R4gqA6RendWmcCoDba58kF7fw3PqzJE/VvQNlqyTHJRlp0TgeTfLNJFvrXtbTpuPfg26s4iAABgAAABggn4kQVwBMP3hrF8epALh9dkzyrTRrqeeNmUV5bJItdHerTU7yviSLWzyW707y17qadXh2khu6OA4FwAAAAAAD5CsR4gqAqduOSRZFAMz6eU2qG/mDcp69LVUwQvvskuSiARrL/xUPNPCnpiT5WLq/7LkAGAAAAGCAfC9CXAEwdZqQZHaXx6kAuB2mp1oadBDPtcNJ/mH8+0I7vCrJwgEcy9fHu4H5H09OMqdHY08ADAAAADBAzo0QVwBMnd7dg3EqAG6+Rye5yjk3J6daMpjmmpjq9ROjAzyOlyZ5maEw8N+DDyRZ2cNxJwAGAAAAGCCXRaAgAKYuf5YqCBAA80j2THKH8+1/f85MNRua5pma5FRjOGNJViV5pSExsD/7f1bDmBMAAwAAAAyQG+ImrACYOkxM8tMejVMBcHPtn2SZc+2ffC4wrhtnVg/PeU35rIwQeNC8NcmDNY03ATAAAADAALknbsAKgKnDh3o4TgVlzfScCH8f6XNWkkmGSSNsmuQiY/YhP6uTPN8Qab3tkvxXzWNNAAwAAAAwQHr57jEBMFSemGQoAmAe3tOSLHaOXefn04ZK35uSZLaxus7fJXYyVFrrdUnu64NxJgAGANgAk5UAAGiwTZNMUwboqYlJvhrvMOXh/VmSn6RaMrdXRpPcnOS3Sa5NcnuSu1OtErEyyYq1xu8WSTZJskOSHZPsmuo9xXsleVSPa/V34/v7DcOmL01I8h9JDujxdpcluSrJb5LcmGR+kjtTPXjz4Fp/b8vxsbzT+Fh+wvg43jO9fXBm+yTfS/KiVDOCaYctUj2k8i6lAAAAAKCXdoxZN2YA02v/r4ZxagZwc0xNcmmPxsWSJCcleWPKBbePT/K3qWZ8DvfoOB5Isouh05c+3MPz3Nwkn0jy3HS+NPik8XY+keoBg14dwz8bMq3xklQP0vTT76xmAAMAbIAJSgAANNjuSa4r0M6vkiwf0BouSvJXhhLraY8kV6SacdZLMwf4O9o0xyV5f5e3cXGSL6R6H+XKLm5n+yQHJzks3Q9oz07vZ5nyyJ6d5MJUS0B3y3CSbyU5cfx3kW55bpL3pHpYopvvnV6ZavbxjYZPY01P8tFUqxNM7LN9W5jer9IAAAAAQA32TZkZBbsqJazT5CS/Tj2zfswAboaXd3kcXJzkhTUc1yZJPpDuvwPzIEOob2yZ5NYu9vVIkq8l2a3Hx/WkJKd3eRyfZ/g01j6pHqzs11VrzAAGAAAAGBAHpMwNpS2UEtbp46nvpq8AuP9NT/UO3m70/8Ikb0/9K1htm+S0Lo7zW9Ld2aasvy93sZ+vTPUAW51em+od2d06xv9lCDXKlCRHpHvL3t8SATAAAAAAG+BN6fxm0mj6b4k76Dd7J1kdATAP74gu9f0lSR7dZ8d6WJI1XTredxpKfXG+61b/npDqPdn9YId0733dFxpGjfGkJJd3aRyMpnotwJMjAAYAAABgA7w7nd9MekAZ4RFNS3J16l32UQDc33ZLsqIL/X5S+ics+2Mv79IxmwVcr4mp3sVbul9XJXlLHx7v9CQ/6NJ5+3mGU1+bkORdSZZ1qf/vTnLg+LYeFwEwAAAAABvg8HR+M+k2ZYRH9JkOvl9rUmYmnQC4vx2f8uHBp1P/ks/r8up0Z6boawyp2ry2C/35YJKX9vExT01ydheO+weGU996dJLz072Hts5Osv1a2xMAAwAAALBBPpnObyZdpYzwsJ6TzgKu/0iZ2UUC4P61XcrPhP1Sg47//SkfnpxuWNWm9FK4q5Ls14Dj3nT896HSx76lIdV3Xp9kUboT/K5I8oH86cM7AmAAAAAANsiX0/nNpIuUER7Spklu6OC7tTrJYyIAbrujUjZAOCvJpAYd/4Qk/1W4BiuTbGVo9dxfpnwg9tYGHf/uqWYrlzz+txlWfWObJP+Z7s36vSbJng+zbQEwAAAAABvk2+n8ZtKZyggP6Usdfrf+bbwdAXB7TU11Q75UgLAgyaMaWIdtUn5G3dsNr547p3AfntDAGnywcA3OMaz6xs3pTvA7muSzSaY9wrYFwAAAAABskNnp/GbSKcoIf+LFqW7qbuz3aijJTuNtCYDb6+UpGyQc0OBafKhwLfxs6q0dk4wU7L/rG3rempLk2oJ1WJ1kpuHVF5akfPh7T5ID12PbAmAAAAAANsjFGax3TUIvbJ7ktg6/V0et1Z4AuL2+lbJLPzfZ1CR3FKzH7YZXT304ZYOxAxtcizcUrsWLDK++sKRwv56dZPv13LYAGAAAAIANMjed30w6ShnhD3ytw+/UvUlmrdWeALidNk2594WOJNmjBTX5x5QNWHYzzHrm1wX77byG12JyOn8IaO3PRwyvvrCkUH+uSPKBVO8/X18CYAAAAAA2yJ3p/GbSPygj/LcSS/oe+kdtCoDb6WUpFxC15V3sj0oyXLAuf2WY9cSuKRvcv6AFNfmXgvX4kSHWF5YU6Mtrkuy5EdsWAAMA1GCiEgAADbZFgTaWKCMkqWbtfrnDNq5NNYOY9isZch3bkprcn+TnBdt7nGHWEy8s2NZvCo+BupxesK2nG2KNN5bkC0mekeQq5QAAaAYBMADQVFNTLUHaqQeUEpJU4e/OHbbxoSRrlHIglAqAFyT5aYvq8l8F23qsYdYTJd9R+5WW1OSaJDcXamv7JNMNs8a6N8krUi37vEo5AACaQwAMADTVrELtCIAheXWSN3bYxrfS/Hdfsn5mJNmnUFtnJBltUW1+UbCtxxhqPfHCQu2MJvlBi+ryy0LtTEi1zDbNc26SvWIZbwCARhIAAwBNNatQOwJgBt02SU7osI2FST6slAPjSUmmFGqrbcHC1UmGCrW1i6HWddunXDh5cZK7WlSbywq2tZuh1igrk3wwyf4tG9MAAANFAAwANNUWhdpZopQMuBOTbNthGx9ItUwkg2H3Qu2MJvlVy2qzJsl1hdqaaag1Ziwnyc9aVptrC7blYYZm9fuzkhyX6t2/AAA0lAAYAGiqWYXaMQOYQXZwquWfO/FfqZZ/ZnCUCs2uaek5+NZC7QiAu+9JBdv6Rctqc1vBtozl/jeW6oGwP09ylXIAADTfZCUAABpqVqF2BMAMqh2TfL7DNu5PcqhSDpxSAfDcltbn9kLtTE/10PaoIdc1JQPgX7esNvNThYITCrS1qaHW1+5N8rZ41y8AQKsIgAGApppVoI01SZYrJQNoQpKvJtmyw3bem+Qe5Rw4r0+ydZJHjf+59j9vu9a/++O/88dB0o0trc+Sgt/TTVLuncL8qS8kOWd83O40/uf2SXZY69/NWI92Fo5/2mR1khUpE97OMNT61rlJ/ibe9QsA0DoCYACgqUq8A3hpvN+MwXRokgM6bOPUJN9XyoE0lmr29/0b8P+ZmD8Nha9raX1KBrarDbeu+t3455HMSBUIb59ku1SrJ2yT/wmMd0iyoKX1WZ4yAbAZwP1nZZLDUz0E4XdhAIAWEgADAE1VIgC2/DOD6M+SfLrDNu5K8j6lZAOMJrlv/NN2qwq1szrVShXUa3nWLyg2lh+ecdxf5iZ5c5IrlQIAoL0mKgEA0FCzCrSxRBkZwN//T0qyWYftvDPJIuWEhzS9UDsrlJKabV6oHQ/c9YexJCcm2SfCXwCA1jMDGABoqlkF2nBDkkHzgSQv7LCNryX5kVLCw5pZqJ17lZIaTSw4lv2+Vb97k7wlyVlKAQAwGATAAEBTzSrQhhuSDJInJjmywzbmJ/m/SgmPaOtC7cxXSmq0ecqtGrdUOWv3rCSLlQEAYHBYAhoAaCrvAIYN+73/q+lsadqxJO+IpdNhXR5fqJ3blZIazSrY1h3KWTvhLwDAgBEAAwBNNatAG0uUkQFxeJLnddjGl5Kco5SwTqUC4BuVkhrtUbCta5QTAAB6SwAMADTVrAJtmAHMINgjyT932MYtSf5RKWGdtkuya6G2fq2c1GivQu3cn+Ru5QQAgN4SAAMATTWrQBsCYNpucpJvJtmkgzZGk/xNkmXKCeu0X5IJhdqao5zUaK9C7Zj9CwAANRAAAwBNNCnJzALtCIBpu39J8owO2/hckguVEtbLAYXamZfkPuWkRnsXaudSpQQAAAAA1sdWScYKfF6vlLTY3klWd/gduS7J9A73Y1mB7+oM3UkDbJ5keaGfT59VTmq0e6FxPJbkL5Rz4D2u0Fi6XykBANafGcAAQBPNKtTOEqWkpaYl+UaSKR20sSbJwUlWKCeslzcn2bRQW7OVkxq9sVA7S5P8SjkBAAAAgPWxd8rMJPhzpaSljinw/fh4oX0xA5hBsEmS2wr9bLoj1asOoC7XFhrL31dKYgYwAAAAAOvpRSlzI+mJSkkLPSfV7N1Ovhu/TTK10P4IgBkEH065JXOPUE5qtHfBsfwm5SQCYAAAAADW02tS5kbSdkpJy2ya5IYOvxerkuxZcJ8EwLTd45I8WOjn0uokuygpNTo95cK6TZSTCIABAGoxWQkAgAbaolA7Dxber22T7Jhkp/E/HzW+rxPyh+8tXpJqhubSVDf770hy+/jnbt1LBz6T5PEdtnFEkquUEtbLlCQnJ5lZqL2vj/9MgDo8OcmrCrV1UpKVSgoAAAAArK8PpPNZBKs63IfHJXlbkuOSXJBkYcrMbliR6t1730zyviTPjhk0rJ8XJxntcPxdkSrQKskMYNpqQqrAttRyuStj9i/1Oq3QWB6N12zwh78zmwEMAAAAwDp9NJ3fRLp3A7c5Pcnrknw1yS0pd8N/fZcEvSDJ+5Psqvt5CJsnuS2dh09P7sK+CYBpq08XPtd/TEmp0YvS+UNEv//MVk7WIgAGAAAAYL18Pp3fRLpxPbYzMclLUi1j+EB6G/o+0mdOkr9PsrWhwLgSsxA/1KV9EwDTNpOSfLnweX1ukmlKS02mJbku5Wb//rmSshYBMAAAAADr5aR0fhPp8kdof2qSt6Zainmsjz8rUy0VvZchMdBeXmAs/SJVqNUNAmDaZLskZxc+l69I8gylpUZHFRzPpyknf0QADAAAAMB6OT2d30T6yUO0OzXJh5Pclf4Ofh/qc3aSpxoaA2dWkjs6HDvLUt2c7RYBMG3xqiT3dOH8fYjSUqNnpnrVRImxvCbJHkrKHxEAAwAAALBefpryM1Rekv6f8buuz0iqGcE7GCID49sFxs17uryPAmCa7qlJftyl8/bnlZcabZ7kdwXH81eUlIcgAAYAAABgvVyRzm8ifX28rR2SzE6zg98//jyYKtSbYKi02qtTZiZ8t8eJAJimem6S76aa1diNc/WXnaep2SkFx/N9SR6lpDwEATAAAAAA6+XmdH4T6XNJXpPqhuVYSz9nx2zgttomnS9FuyTJo3uwrwJgmmS3JP83yZwun5+/GOEv9Tq08Jh+k5LyMATAAAAAAKyXhen8JtKdaW/wu/bnrlTLW9MupxUYG3/To30VANPPHp3kDUmOS/KbHpyT1yT5oLJTs79IsiplHziDhyMABgCogSeOAYAm/v4ynGSSUqy3kSSHJTlBKVrh4CT/0WEbZyV5RY/2d1k6D3BnJlmu60myVapZuuvzs2LW+D9vNj6Gtkm1KsL2SXZP8sTx/9Yr945/f4Vl1Gn3JBcn2bJQe0uSPD3JrUrLw3hckhsLtLMwlhkHAAAAaK3NMxgzd7vxOdrwabwdkyzqcBwsTrJTD/fZDGBKenNDz7+zY0l+6rdNkt8VHtuvU1bWwQxgAAAAANZplwhyO/n8e6wC01QTUoVInY6BN/Z4vwXAlNS0APjWVEtMQ922SPLrlH+XNayLABgAAACAddozQtxOP/9mGDXSuwv0/Rk17LcAmJKaEgAvTPKRJNN1GX1g8ySXFh7jVxnfrCcBMAAAAADr9BcR4Jb4HG4oNcqfJVnaYZ/fm2TbGvZdAExJ/R4Az0/y4VTvHIZ+MDPJL1L+AYfHKy3rSQAMAFCDyUoAADTM5n20L0NJ5iS5PtUyn7cmuTPJA0lWjf/3JNk0ybRUyy/ukirM2y3J3kn2SDKphn0/Ksl9Sb5mSPW9iUlOSrJZh+28J1UIDJQ1muSCJCcm+UGSYSWhT2yZ5KwkzynY5nCqZc1vVF4AAAAAoJS3pL6ZXauTnJvkb1OFtyUeppuR5IVJPpPkdz0+npVJnmFI9b0PFejrb9S4/2YAU1K/zAAeSnJmkncl2V630Id2TLVMc+mx/y6lZQOZAQwAAADAOv1ten+j/+dJDko1k6bbnp7kK6nChV4c243pr1nV/KEnFhgLC3o0dh+OAJiS6gqAVyS5MMknkrws1coO0K92T3JbF74HRyotG0EADAAAAMA6fSS9udm/KlUQ+7SajnPrVEFDL4LgbxtWfWlSkks67NvRJAfUfBwCYEqqKwC+Jsk/J3lTkn1SLekP/ehZqYKy0t+BU5JMUF42ggAYAAAAgHX6TLp7k380yXeTPLZPjneXJKem++HGGwytvvP/CvTrv/fBcQiAKalfloAeTXJdquXV35vqfe5Qt/2SLO3CeP9+yrz2gsEkAAYAAABgnb6S7t3Qn5Pk2X163K9PsqiLx357LGnaT/ZIteRsJ316S5LN+uBYBMCU1C8B8MN9576UaonoSbqKGr4bq7swrk+L8JfOCIABAAAAWKfvpfzNzeEkH08ypc+P/dFJfpPuhRcfN7z6wuQkv+6wL0eSvLBPjkcATEn9HACv/bkj1TL+j9FldNmEJP84ft4385d+JAAGAAAAYJ3OTdmbmzekep9jU2ye5Px0J7BYkWQ3Q6x2Hy/Ql8f20fEIgCmpKQHw2g9jnJnkGbqOLtgk1TLk3Ri7/5n+fzCOZhAAAwAAALBOl6Xczc0fJ5nVwBpMS3JWunPD93hDrFZ7p/MlPH+XZGYfHZMAmJKaFgCv/c7g05L8mS6kkJ2TXN6l8XpyhL+UIwAGAAAAYJ1uSJmbSMel2e9onJ7kopS/6TuUZBvDrBbTklydzmcbPq/PjksATElNDYDXPsd+bPz7Dhvr2Unu7NIY/UKSiUpMQQJgAIAaeJcLANA0r00ytcM2hpJc1/A6rEjyqlQzoh9bsN3pSd4T7wOuw5FJntJhG59O8gulhL41PclHk7w+yRuSXKskbKA3Jfna+Fgq7VNJDldiAABovglKAADQaPukCvymFmzz3iS7pFqKmN54TpIL09ms9Lmp3jO6ss+ObVk6n8E7M8lyw4RUM8levIH/ny1SzWjcPMm2SR41/vmzVMvo1uXBJO9OcqpuZT1MSvWg0D90oe2RJO9NcqIy06Xz9o0F2lk4fu4GAAAAgIHwdym/BOT/Utae2TSdL20+nOSZfXp8loCmn01P8tRUs3GPSfUgxvL0dlnoj+oG1mFWktldGn8rkrxGiekiS0ADAAAAwEaYlOTKlL0hfJKy9syX0u4ASQBM00xNsl+Sz6WatdaLEPiL8d5VHtqTklzfpXG3JMmLlJguEwADAAAAwEZ6UcreFF6csstK89BenGS0w76ak2RKHx+jAJime16Sb6R6f3w3Q+AvKzV/5MBUIW03xtv8JHspMT0gAAYAAACADpydsjeH91fSrto8yW0d9tHKVMvX9jMBMG2xdZKPJXkg3QuB/0WZSTIh1bt+R7o0zn6bet9/zWARAAMAAABAB16asjeIj1bSrvp6gT76+wYcpwCYttl2/Ps7mu6Ec3+txANtZpLvp3sPGZyR6t3z0CsCYAAAAADowIQkV6fcTeKfK2nXvLxA/1yc6v3P/U4ATFu9NMmtKR/QPZjkCco7kHZJckW6F/4eF++apvcEwAAAAADQoX9IuRvFQ/Ee4G6YleSODvtmeZoTEAmAabOtk5yf8kHdFc6/A2e/VAFXN4Lf4STvUWJqIgAGAAAAgA7tlrI3jZ+ppMWdWqBf3t+g4xUA03aTk5yY8qHd3yntwDgkyep0J/x9MNWqE1AXATAAAAAAFHBlyt04fptyFvXqAn3y41TLfTeFAJhBMCHJv6dscLc0yY5K2/px84l0b8nn25M8TZmpmQAYAAAAAAr4UsrdPP64chazTZJ7OuyPu5Ns37DjFgAzKCYmOS1lA7wTlbW1piY5Od0Lf3/VwJ8XtJMAGAAAAAAKOCjlbiCfrJzFdBoMjST5ywYetwCYQTIzyXUFz8Erk+ygrK2zZZKfpXvh76lJpiszfUIADAAAAAAF7J5yN5F/oZxFHFygL45q6LELgBk0eydZU/A8fKSStspuKfuQwNqf0SQfU2L6jAAYAAAAAAqYlmq2aKn3B9KZHZMs6rAfLksypaHHLwBmEB2fcqHePUkmKWkrPCudvwrg4T4PJnmVEtOHBMAAAAAAUMiClLnZ9oBSdmRCktkd9sGSVDPGmkoAzCB6VJKlKRfu7aekjfe/kwylO+Hv75LsocT0KQEwAAAAABTyq5S52TaslB15d4E+eHPDayAAZlB9MeUCvhOUs9EOHv952o3w96Ik2yoxfUwADAAAAACFnJtyN5enKudG2S2dzwD8UgvqIABmUO1R8Dx8i3I21j+kejdvN8LfE9Lc1wMwOATAAAAAAFDIGSl3g3lL5dxgE5P8tMO6/zLtCN8FwAyyawqei3dWzkaZkOQz6U7wO5zkMCWmIQTAAAA1mKwEAACttLxgW9OUc4O9PMkLO2xjuyQXt6AW0wu0cVGqGXQl3JrkdYYoPXJ2kicXamvfJN9X0kaYmGp27ju60PaSJH+VaqUPAACAhyQABgBop0kF21qhnBtsswJtPFYZ/9vTC7ZlNjG99NMk/6dQW0+JALgJJqR6/3M3wt+bk7wiyVxlBgAAHslEJQAAaKXpBdsaUk6AjVIyqNtNOfve78Pf93Sh7V+mmgUu/AUAANZJAAwA0E6lAuA1qd41CMCGuy3lHqIRAPe334e/7+1C299O8pIk9yozAACwPgTAAADtVGqZW7N/ATbeaJK7C7W1g3L2tX9L+fB3LMk/J3lzkpVKDAAArC/vAAYAaKdSQYEAGKAzDxZqZ1Ol7FsfT3JY4TZHUgXKJyovAACwoQTAAADtMyHJToXauls5ATpSKgCeoZR96b2pZumWNJTkDUl+pLwAAMDGEAADALTPtkmmFWrrNuUE6Ivr7mlK2XfelGrp55IWJXllkl8qLwAAUPeFKAAA/ePxBdsSAAMba8sk26d6KGWn8T+3T3Jxkh8OUB1KLd28wpDqKy9L8o0kEwu2eXuSv0xyg/ICAACdEAADALTPMwq2JQAG1rZJkq1SvWd8x1Qh7+//ee1/t0uSzR6mjVMjAN4Yyw2/vrFHku8kmVKwzVuT7JfkZuUFAAA6JQAGAGifvQq2dbtyAklmJbkjycwCbT11wGr3qELtDBmGfdOfPxz/TpRyfarwd4HyAgAAJUxUAgCA1vnzgm1do5xAkiVJVhZqa/eUmxXb77ZIuaDQDOD6bZIq/H1swTbnJnlRhL8AAEBBAmAAoM0mpFqS9M9T3YQfBI9OtTRlCYtTzUoCSJJrC7UzJclzBqRmuxZsa6EhWPvvFN9Ism/BNuckeX6Su5QXAAAoyRLQAECTTU8V8D5m/LPjWv97x1Q33meM/93Dkhw/ADU5oGBblyUZM8yAcdcleUGhtl6U5CcDULOSy117N2y9/jHJGwq2d0OSA5MsUloAAKA0ATAA0O9elmSXJDunCnR3Xuufp29AO6/MYATAryjY1mWG30a7NMmhypAk+UKSaR228f4kqwrtzxJdstFKLgm/f5KPDEDNSi7Jf4shWJsXJDmiYHs3pXoI4h6lBQAAAAAG0Y2pZqF2+lmV5FEtr9VOSYYL1Wss1cwk6NSyAmNxhjL2hb0Knl/GkjxhAGp2acF6vdEQrMV2qd7PW6of5yfZTVkZII8r9N25XykBANafdwADAP3uF4XamZrkoJbX6u0pt8LLUJKfG37AWq5K2ffQ/lXL67V9kmcUbO8mQ7DnJiX5TqrXSpSwKMlLYjY3AAAAADDg3p5ys27mJpnQ0jpNS3J7wVqdYehRiBnA7XJ6wfPMHUmmtLhW7ylYqxWpHmSit/61YB+uSrl3aEOTmAEMAAAAwJ94QsouOfqqltbpfYXrdJChRyECYOeaR/q8qcW1urBgnS4y9HpurySrC/bhu5SUASUABgAAAOAhzUu5G7CXp32zgGckuatgjVYn2dKwoxABcLvslmS04PnmyrTz1UT7pGxQfrSh11OTk8wp2H+fVFIGmAAYAAAAgIf0iZS9kf7XLavP0YXrc6YhR0EC4Pb5ZeFzzttbWKPvF67Ryw27nvrngn03O+18yAHWlwAYAAAAgIf09JS9kb4gyWYtqc2fJ1lTuD4vMeQoSADcPn9b+JxzZ5JZLarP81N2lvSDSTY17Hpm91TvXC7Rd3cn2V5JGXACYAAAAAAeVslloMeSfL0FNZmZZG7hulyV9i2RTb0EwO2zXZLhwuee77SkNpPHz6Mla/MtQ65nJiS5uFC/jSTZT0lBAAwAAADAw3t/yt5QH0vyhgbXY2KSH3ShJm8z1ChMANxO3+3C+acNS0Ef04W6vMJw65k3F+y3o5QTkgiAAQAAAHgEmydZmrI31Zcn2aeh9fhUyocMdybZxFCjMAFwO+3dhXPQqjR7xuQbu1CT+5NMNdx6YpMktxbqt+uTTFNSSCIABgAAAGAdvpDyN9fvTvW+vyb51y7UYSzJ3xhidIEAuL3O7cJ5aEmqd5s3zQEp997YtT9HGGY9848F++3Fygn/TQAMAAAAwCPaJclQyt9gvyfJXg04/glJPp/uhL+XpVpWGkoTALfXi7p0PlqWZP8G1eGVSVZ2oQ4PJtnaMOuJbVI9fFCi376pnPAHBMAAAAAArNMn053A4cEkr+/j4946yVldOvbRJM8ztOgSAXC7ndGl89LqJH+X6sGXfjUx1QzdkS7V4DOGV898seDvEtsqJ/wBATAAAAAA6zQr1Q2gbgWhn0+yaZ8d8/OT3NalYx5LcpJhRRcJgNvtz1K9T71b56dzkuzah8f9hCQ/7eJxL0myveHVEzunev90iX47WjnhTwiAAQAAAFgv70j3brqPJbkpySv64Dh3THJyqmC6W8d6Q5LNDCm6SADcfv/U5XPyUJKPJ5nZB8e6Rar3sK/s8jG/x7DqmVKvVlges3/hoQiAAQAAAFgvE5L8KN29+T6W5OIkB6T378bdJdXSn0u7fHwrk+xtONFlAuD2m5bk8h6ckxeleg3AjjUc4w5Jjky598Q+0ueX8U72Xtkq1bLNJfrts8oJD0kADAAAAMB62zHJwnT/RvzvZwT/v1RLfnbL9CSvSvKdVO++7MVxvc8wogcEwINht1QBbS/OXWuSnJfk7enujMttkrwlydnj2+zFsa1M8mTDqWc+1qN+9ak+lxhyPbG1sdb1z36GGQAAAED3vCLJSHp7w+faJF9I8lepAo8JG7nv05Lsm+SDSU5LuRlIG/Le3wmGED0gAB4cr0p3l6x/uHe3X5vk+CTvHD+vbrER+75Jkmck+ZtUSwL/poZjGUtysGHUMzOS3BdBlgC4fQTAAmAAADf9AIDG+z9Jjqlx+0NJrk8yP8k9458Hx//bslTvrJyeKlzYLsmu45+dk0ytaZ9/kOT1qWa0QbctS+cB7sxU79ek//1LkiP6ZNwtSHJvquX0h8bPeauTbDp+/t1s/Ly8farApG7HJvmQIdQz70pygjL01KVJnq0MXbd1LJfcbS9Jcr4yAAAAAHTXiTETYX0/F6QKo6FXzAAePMc4127w59wkkw2dnvqIcWcGcEuZAWwGMABAJioBANAC70lyijKs0y+TvDrVOyYBuuXvkvy7Mqy3C5O8NlZlAAAAoBABMADQBiNJ3prkS0rxsE5L8peplkIF6KaxJIel3uX5m+KcJPvnf14dAAAAAB0TAAMAbTGW5H1JPqMUf+KoJG9IskIpgB4ZTTUT+J1JhpXjIZ2R5FXOzQAAAJQmAAYA2mQsyd8neVOS5cqRZUkOzv+85xCg176a5GVJ7lWK/7YmyT+mWvZ5lXIAAABQmgAYAGij7yTZN8n1A1yDXyTZK8k3DQegZj9N8pQk/6kUuS/JAUmOjgdzAAAA6BIBMADQVlenCkCPSLJ6gI57ePyYX5jkJsMA6BP3JXldkr9OsmgAj38s1QM5T0nyE8MBAACAbhIAAwBttjLJx5I8M8kvW36sY0lOSxUufCzJiO4H+tCpSR6f5FPj5+hBcH2Sl6Zakt9S2AAAAHSdABgAGARXJ3lekr9MckULj++XSf4iyeuT3KC7gT63KMnhSfZIFQiPtvQ4b0ry7pj1CwAAQI8JgAGAQfKTJPukCkqbPiN4JMkPkuyXKtz+he4FGuaWVEtC/35GcFuWhr4y1Wzf3ZOckGSNrgYAAAAAgN54apIvJlmSagnlJnzmp1rieWfdR0MsKzDuZyjjQJiZ5D2pHmgZadB5eSzJ/Um+nOT5urExPtKwMdaGzyWGXU9sbax1/bOfYQYAAADQ/6YlOTDJiUnuTv/dZJqX5LNJXpxksu6iYQTAbIydkrwvyc+SDKc/A4A7k5yc5BVJpuqyxhEAC4DbSgAsAAYAyAQlAAD4AxOTPDPJc5I8d/zPHXu4/bEkNyaZk+RXSX6U6j2S0FSvSecPLpwRy+gOsplJ9k01u/YvUi3lv2kN+3FrksuS/DRVMD1P1zTak1K9n5neWZTkfGXouqlJXqUMXfXzJPcqAwDQzwTAAADrtkuqG8VPXOvPHZJsl2SrjWzz3iQLUi3pfHuSm5NckeQ3SZYqOcDDmphkt/Hz8R6p3rX72CTbJNk+yZYb2e6q8XPznUnuGT8vX5vkmiRznZsBAABoCgEwAEBnpqYKHbZJMinVTLUp4/9+YpKVqZbAHU7yQKpZjHeP/3sAypuWZNtUy6BOSjI9ySapZqJPTTI0fi5+MNWqC0vGz88LlQ4AAAAAAAAAAAAAAAAAAAAAAAAAAAAAAAAAAAAAAAAAAAAAAAAAAAAAAAAAAAAAAAAAAAAAAAAAAAAAAAAAAAAAAAAAAAAAAAAAAAAAAAAAAAAAAAAAAAAAAAAAAAAAAAAAAAAAAAAAAAAAAAAAAAAAAAAAAAAAAAAAAAAAAAAAAAAAAAAAAAAAAAAAAAAAAAAAAAAAAAAAAAAAAAAAAAAAAAAAAAAAAAAAAAAAAAAAAAAAAAAAAAAAAAAAAAAAAAAAAAAAAAAAAAAAAAAAAAAAAAAAAAAAAAAAAIB1mqAEAAyILZI8Osk2SaYlmZlksySTlQYAAABaZ02SB5MsT7Iqyb1JbkuyVGkAaDsBMABtMznJnkn2TfLsJLsn2S3J1koDAAAAA+/+JLckuS7JJUkuTnJNkhGlAaAtBMAAtMH2SV6V5NVJnp9khpIAAAAA62lZkp8l+UGSHya5T0kAaDIBMABNNSPJm5Ickmqm70QlAQAAADo0kuQXSU5K8t0kK5UEgKYRAAPQNHskOSzJW5JsrhwAAABAlyxM8h9Jjk9ys3IA0BQCYACaYrckhyd5e5JJygEAAAD0yHCS7yT5WATBADSAABiAfrdDkk+mmvEr+AUAAADqsirJCamC4MXKAUC/ciMdgH41MclBSX6YZN94xy8AAABQr8lJnpXknUmWJJmjJAD0IzOAAehHT05yUpJ9lAIAAADoU+elelXVHUoBQD8xmwqAfvPWJJdG+AsAAAD0t79McnWS1ykFAP3EEtAA9IsZSb6e5KNJpioHAAAA0ACbJHl9ks2T/DTJqJIAUDdLQAPQD7ZLclaSZyoFAAAA0FDnJ3ltkgeUAoA6CYABqNtjk/w4yeOVAgAAAGi4q5P8r3gvMAA1EgADUKe9k5ybZGulAAAAAFritiQvSnKLUgBQBwEwAHV5YpKfp1r+GQAAAKBNbk/ygiS3KgUAvTZRCQCoweOT/DTCXwAAAKCdHp3knCQ7KAUAvWYGMAC9tnWSy5PsphQAAABAy/0myfOSDCkFAL1iBjAAvTQpySkR/gIAAACD4elJTo7JWAD00CQlAKCHPpvkIGUAAAAABsiTkqxJcqFSANALnjoCoFdeleQHygAAAAAMoNEk+yX5mVIA0G0CYAB6Yesk1yTZXikAAACAATU/yZ5JFisFAN3kHcAA9MK/RfgLAAAADLadk3xeGQDoNjOAAei2A5LMVgYAAACAJMnLkpyrDAB0iwAYgG6alOTKJE9WCgAAAIAkyXVJnpZkWCkA6AZLQAPQTW+L8BcAAABgbU9K8l5lAKBbzAAGoFtmJLkhyY5KAQAAAPAHFid5TJIlSgFAaWYAA9AtfxPhLwAAAMBD2TLJYcoAQDeYAQxAt36+zE2yu1IAAAAAPKSFSXZNslwpACjJDGAAumH/CH8BAAAAHsnWSd6uDACUJgAGoBveqwQAAAAA63RYrNQJQGF+sABQ2pZJ7k4ytd92bOLEidlxxx2z0047ZdasWdlkk00yadIkPQYAAAAtMzIykpUrV2bJkiWZP39+7rrrroyOjvbr7j43ycV6DYBSJisBAIW9Mn0W/j7hCU/Ic5/73Oy5557ZdNNN9RAAAAAMmGXLluXKK6/MRRddlFtuuaXfdu+QCIABKMgMYABKOzPJy/thRx73uMflta99bR7zmMfoFQAAACBJMm/evHz/+9/P/Pnz+2WXlibZLslKvQNACQJgAEqanmRxkml17sTkyZPzute9Li984QszYYIfdQAAAMAfGhkZyY9+9KPMnj07Y2Nj/bBLL0tyrp4BoAQvPgSgpH2TvLPOHZg5c2Y+8IEPZO+99xb+AgAAAA9p4sSJeeITn5hddtklV155ZUZGRurepfuTnKNnACjyc04JACjoOXVufNNNN82HPvQhSz4DAAAA6+VpT3taDjvssEyZMqXuXTlAbwBQigAYgJJqC4AnTpyYd77zndl55531AgAAALDedt999xx88MF1ryS2e5Jd9QYAJQiAASjpmXVt+MUvfnH22GMPPQAAAABssH322SfPf/7z696Np+sJAEoQAANQypZJdqxjw5tvvnle+cpX6gEAAABgo73uda/LrFmz6tyFJ+sFAEoQAANQSm3Tb1/ykpdk2rRpegAAAADYaNOmTav7AXNLmwFQhAAYgEZfpEycODHPec5zVB8AAADo2LOf/exsueWWdW3eDGAAihAAA9Doi5Tddtstm222meoDAAAAHZs0aVL23Xffujb/xCST9AIAnRIAA1BKLTOAH/vYx6o8AAAAUMwznvGMuja9SZLH6AEAOiUABqCUWmYA77jjjioPAAAAFLPTTjtl+vTpdW3eMtAAdEwADEAJs5LUksQKgAEAAICSJkyYkB122KGuze+hBwDolAAYgBIeX9cF2fbbb6/6AAAAQFE1BsCPU30AOiUABqCEXerY6NZbb51p06apPgAAAFBUjQ+cP1r1AeiUABiAxl6c1Pg0LgAAANBiNb5ySgAMQMcEwACUUMsMYAEwAAAA0A013nPYJckEPQBAJwTAAJS6OOm5bbfdVuUBAACA4rbaaqtMnjy5jk1vkmQbPQBAJwTAAJRQy/JEW2+9tcoDAAAAxU2YMCFbbbVVXZu3DDQAHREAA9DYC5MaL8QAAACAlhMAA9BUAmAAOjU1yXZ1bHjLLbdUfQAAAKArBMAANJUAGIBO7VTHz5MZM2Zk2rRpqg8AAAB0RY0B8C6qD0AnBMAAdKqW2b+WfwYAAAC6qcaVx7ZRfQA6IQAGoFO1JLECYAAAAKCbarz34KYHAB2ZrAQAdGhWHRv1/t/mGB0dzcqVKxViQE2aNKkVy7WPjIxk1apVOtQ4bryhoSEdOsA23XTTVhzHqlWrMjIyokMH1LRp0zJp0iTjmEbbZJNNMnGieTlNUOO9BwEwAB0RAAPQqUfVsdGZM2eqfENcf/31OfbYYxViQD3pSU/KBz/4wcYfx5w5c/LVr35Vhw6offbZJ+94xztacSwf+tCHdOgAO+GEE1pxHCeffHIuv/xyHTqg3vGOd2SfffZp/HF8+ctfznXXXadDB9QHP/jBPOlJT1KIBqjx3oMAGICOeNQMgEZelMyYMUPlAQAAgK6ZMWNGJkyYUMemLXsGQEcEwAA08qJEAAwAAAB008SJE+t6FchWSSboAQA2+meYEgBQ4KKk59ryDjsAAACgf9X0APrkJJupPgAbSwAMQKcsAQ0AAAC0Uo0PoHsPMAAbTQAMQKcsAQ0AAAC0Uo33HwTAAGw0ATAAnZpVx0YtAQ0AAAB0W40B8CzVB2BjCYAB6NS0OjYqAAYAAAC6rcb7D9NUH4CNNVkJAOjQ1J7/8Jo8OZMmTVL5Fnn7QZvlsY+ZohAN9KUTH8iCu0YUIsn73715tt/Or9dN9Oljl2TJA6MKkeQFz9skL9vPQ1ZNdM75Q/n5L1YqRJJZW0zM339wlkI00N33rMkX/n2pQiTZaYdJOexdWyhEA91083C+dvKDCtEiU6dOrW3Tqg/AxnKHCoDGXZAIf9vnDf97RvZ7wXSFaKDv/2CZAHjcwW/aLE97qns0TfTvX1sqAB73rGdMy99/QODQREuWjAiAx22+2UTjuKGuvHq1AHjctttOMo4b6vyfrxAAt8zkybXdQndxAcBGswQ0AI27IKnx4gsAAAAYIDU+hC4ABmCjuYMOQOMuSAZpBvCcOXPy1a9+tdHHMDY25lsywObNm5f3vve9jT8O43iw/frXv86cOXMUgsZrw/k4SUZHzdgfZF//+tdz0kknGcc02he+8IVMmDCh0cfwjne8I3vvvfdA9JcAGIAmEgAD0LgLkkEKgEdHRzMyYnldmmtsbMwYxjiGPmEc05bfj8E4dgy9ZAloAJrIEtAAdGJCaniYyBLQAAAAQC8IgAFoIgEwAI27GBEAAwAAAL1gCWgAmkgADEDjLkYGaQloAAAAoD5mAAPQRAJgADoxpY6NCoABAACAXhAAA9BEAmAAAAAAAACAlhAAA9CJ4To2OjIyovIAAABA19V4D2K16gOwsQTAAHRCAAwAAAC0Vo33IIZVH4CNJQAGoHEXIwJgAAAAoBfWrFlT16YFwABsNAEwAJ0YSTLa840KgAEAAIAesAQ0AE0kAAagUz1/FFYADAAAAPSCJaABaCIBMACNuyARAAMAAAC9IAAGoIkEwAB0qudLEgmAAQAAgF4QAAPQRAJgADrV8yWgV6/2GhwAAACg+1atWlXXpt38AGCjCYAB6NRQrze4Zs2aDA97EBYAAADorpUrV9a2adUHYGMJgAHo1NIBuwADAAAABsTQ0FBdm16i+gBsrMlKAECHHqhjoytWrMhmm22m+uvhWc96Vk444YTatn/ppZfm0EMP1RHGX6OdffbZOfzww3XogNp///1z9NFHt+JY9tprLx06wH7729+24jgOP/zwnH322Tp0QB199NHZf//9G38chx56aC699FIdOqBOOOGEPOtZzzL+GmLFihV1bfoB1QdgYwmAAehULTOAa7wAa5wpU6Zk2223rW37s2bN0gkDbOrUqbWOv1K22GILnTnApk2b1opxDG0Zx9OmTdOZA2yLLbZoxVieOnWqzhxgs2bNqnUcT5kyRSdsgBpXIFuq+gBsLEtAA9Cp2mYAAwAAAHSTGcAANJEAGIBGXpAIgAEAAIBuq+n+w1iSB1UfgI0lAAagUwJgAAAAoJVquv+wLMmI6gOwsQTAAHSqlnfSLF3qVTgAAABA9wwNDWV4eLiOTVv+GYCOCIAB6NSSOjYqAAYAAAC66cEHa1uFWQAMQEcEwAB06v46NioABgAAALrpgQdqy2HvVX0AOiEABqBTd9exUQEwAAAA0E01BsB3qz4AnRAAA9Cpe+rYqAAYAAAA6KYa7z3cpfoAdEIADECnzAAGAAAAWqfGew/3qD4AnRAAA9CpB5Ks6PVGh4aGsmbNGtUHAAAAukIADEBTCYABaOSFydjYWJYsWaLyAAAAQFcsWrSork1bAhqAjgiAASihlmWg77//fpUHAAAAuqLG+w53qz4AnRAAA9DYC5OFCxeqPAAAAFDc6OhoFi9eXNfmBcAAdEQADEAJd9axUTOAAQAAgG5YsmRJRkZG6tj0qiRueADQEQEwACXcVsdGa3wXDwAAANBiNa46dnuSUT0AQCcEwACUcOuAXYwBAAAALVbjPYdbVR+ATgmAASjhljo2agloAAAAoBtqvOdwq+oD0CkBMAAl1LIE9JIlS7J69WrVBwAAAIq655576tr0baoPQKcEwACUcG+SZb3e6NjYWJ0XZAAAAEBL3X333XVt+lbVB6BTAmAASqnlCVUBMAAAAFBSzQ+c36oHAOiUABiARl+g1PhELgAAANBCS5YsyapVq+ra/K16AIBOCYABKOV3dWxUAAwAAACUdNddd9W16eVJ7tQDAHRKAAxAKdfXsVFLQAMAAAAl1fiw+bwkY3oAgE4JgAEoeZFSy0XZ6Oio6gMAAABF1DgD+HrVB6AEATAAjb5IWb16de677z7VBwAAAIqYP39+XZuep/oAlDBZCQAo5M4kS5Ns3usN33HHHdluu+30QIMd9+WlOe0HyxWige6YP6II4448Zkm23srzlU20aLGVJH7vnAtWZPGS+xWigS6bs0oR1vpOv+dDxnETLVzkfLz271jGcTMtuMvvx003NjaWBQsW1LV5ATAARQiAASjp+iT79Hqj8+fPzzOf+UzVb7DZ5w4pAo13+pkeYqD5rrx6da68erVC0GjLlo/mK994UCFotPsXjhjHUJP77rsvq1bV9mCVABiAIkxRAKDxFyo1Ls0EAAAAtEiN9xhGk9yoBwAoQQAMQEnXDdjFGQAAANAiNS7//LskK/UAACUIgAEo6co6Nrp48eIsXbpU9QEAAICO3HbbbXVt+krVB6AUATAArbhYueWWW1QfAAAA2GhjY2N13l8QAANQjAAYgJIWJLm/jg3fdNNNqg8AAABstHvvvTfLli2ra/MCYACKEQADUNpVdWz05ptvVnkAAABgo9W8upgAGIBiJisBAF24YHlxrzd66623Zs2aNZk82Y+2vvtlY/LkbL755goxoGbOnNmK45gyZYpxPMBmzJjRmmMxjmnLd9JYHlxTpkxpze9IxvFgXyPRn2oMgJckma8HACj2+4YSAFBYLTOAh4eHs2DBguy66656oM/su+++mTdvnkLQaAceeGAOPPBAhaDxnI9pg2OOOSbHHHOMQtBoX/va1xQB+lDN7/8d0wMAlGIJaABKu7yuDVsGGgAAANgYw8PDmT+/tkm4l+oBAEoSAANQ2twki+vY8E033aT6AAAAwAa79dZbMzIyUtfmBcAAFCUABqC0sSSX1bFhM4ABAACAjVHj8s+JABiAwgTAAHTDr+rY6MKFC/PAAw+oPgAAALBBagyA5ydZoAcAKEkADEA3/KquDd94442qDwAAAKy3kZGRzJs3r67N/0oPAFCaABiAbrgsyWgdG547d67qAwAAAOtt7ty5GRoaqmvzl+kBAEoTAAPQDUuSXFfHhufMmZPh4WE9AAAAAKyXCy+8sM7NmwEMQHECYABadQGzYsWKXHLJJaoPAAAArNOdd96Zq6++uq7NDyeZoxcAKE0ADEC31PYE6+zZs7N69Wo9AAAAADyi008/PWNjY3Vt/qokK/QCAKUJgAHoltoC4EWLFuXMM8/UAwAAAMDDmjNnTp2zf5PEEmYAdIUAGIBumZdkcV0bP++883LdddfpBQAAAOBPLFy4MKecckrdu3GpngCgGwTAAHTLWJKf1bbxsbGceOKJWbBggZ4AAAAA/tvQ0FC+9KUvZfny5XXuxliSn+oNALpBAAxAN51b9wXdsccem/nz5+sJAAAAIENDQ/niF7/YDw+MX5HEDQsAukIADEA3nVv3DixdujTHHHNMrrrqKr0BAAAAA2zx4sX53Oc+l5tuuqkfdue/9AgA3SIABqCbbk7yu7p3YsWKFTn++ONz2mmnZc2aNXoFAAAABsy8efNy1FFH5Y477uiXXRIAA9A1k5UAgC77fpJ/rHsnxsbGct5552Xu3Ll529velp133lnPAAAAQMsNDw/njDPOyAUXXJCxsbF+2a0bklytdwDoFjOAAei2k5L0zRXWggULctRRR+XMM8/M6Oio3gEAAICWWrBgQY4++uicf/75/RT+JslX9A4A3WQGMADddmOSXyZ5Xr/s0MjISM4666zMnTs3hxxySLbddlu9BAAAAC0xOjqa8847Lz/84Q/78VVQq5J8Qy8B0E1mAAPQCyf1407dfPPN+fjHP96PTwIDAAAAG+H+++/P5z73uZx++un9GP4myfeS3KenAOgmM4AB6IXvJDkqyXb9tmPDw8P53ve+l+uuuy5vfetbs/nmm+stAAAAaJixsbFceOGF+c///M+sWrWqn3f1S3oLgG4zAxiAXhhK8pl+3sGrr746H/3oR3PppZfqLQAAAGiQpUuX5vjjj8+pp57a7+Hvj5K48QBA1wmAAeiVLye5t593cGhoKF//+tdz4oknZvny5XoMAAAA+twVV1yRj33sY7nqqqv6fVfHkvyzHgOgFywBDUCvDCU5Jsmnm3DxeMstt+Tggw/O7rvvrucAAACgzwwNDeXUU0/N5Zdf3pRdPi3Jb/QcAL1gBjAAvfTFJL9rwo4uWrQoxx57bL73ve9leHhYzwEAAECfmDt3bo444ogmhb+rkvyTngOgV8wABqCXViQ5LMk5TdjZsbGxnH/++Zk7d24OOeSQ7LrrrnoQAAAAajI8PJwzzzwz5557bsbGxpq060cmuUEPAtArZgAD0GvnJvl2k3b4rrvuytFHH53TTz89IyMjehAAAAB67NZbb82//uu/5pxzzmla+Ht9GvA6LADaxQxgAOrw4SQvTbJ1U3Z4dHQ055xzTm644YYccsgh2W677fQiAAAAdNnIyEhmz56d2bNnZ3R0tGm7P5rk7amWgAaAnjEDGIA63J3kreMXQo1yyy23NPWJYwAAAGiUu+++O5/61Kdy1llnNTH8TZJ/TfJLPQlArwmAAajL7DR0CaTh4eGcfvrpOe6447J48WI9CQAAAAWNjY3loosuylFHHZXbbrutqYdxQaoAGAB6TgAMQJ3+Kcn5Td356667LkcccUQuueQSPQkAAAAFLF26NF/84hdzyimnZNWqxq6cPD/JG5OM6FEA6uAdwADUaSTJXyf5RZLHNfEAVqxYkZNOOinXXHNN3vzmN2fTTTfVqwAAALARLr300nznO9/J0NBQkw9jeZLXJrlPjwJQFwEwAHW7J8lLU70TZ4emHsTll1+e66+/PgcddFD23HNPvQoAAADraWhoKN/5zndy6aWXNv1QhpO8PsllehWAOlkCGoB+cEuqEHhRkw9i6dKlOf7445u+TBUAAAD0zNy5c3PEEUe0IfwdS/LOJD/WqwDUzQxgAPrFNUlekeSsJFs29mpvbCwXXXRRbrjhhhxyyCHZbbfd9CwAAAD8kVWrVuW0007LRRddlLGxsaYfzmiSw5J8Q88C0A/MAAagn1yc5PlJ7mj6gdxzzz359Kc/ndNPPz1r1qzRswAAADDulltuyZFHHpkLL7ywDeHvSJK3J/l3PQtAvzADGIB+c22qEPjsJLs3+UBGR0dzzjnn5Nprr80hhxySnXfeWe8CAAAwsEZHR/OjH/0os2fPzujoaBsOaVWSNyU5Q+8C0E/MAAagH92WKgT+SRsOZv78+Tn66KNz/vnnt+HJZgAAANhgd955Z4466qicddZZbQl/70zyogh/AehDAmAA+tX9SV6a5PBUyyk12vDwcL73ve/l2GOPzeLFi/UuAAAAA2FsbCwXXXRRPvnJT+aOO+5oy2H9Mskzk/xKDwPQjwTAAPT1dWKSTyXZP8m9bTigefPm5eMf/3guueQSvQsAAECrLVy4MJ/73OdyyimnZPXq1W05rOOTvDjJXXoYgH4lAAagCX6S5KlJ/qsNBzM0NJSTTjopJ5xwQpYtW6Z3AQAAaJ0rrrgin/jEJ3LDDTe05ZDuTfKaJIclWa2HAehnk5UAgAZdaL06yVuTfDHJZk0/oDlz5uTGG2/MQQcdlKc97Wl6GAAAgMZ78MEH861vfSu/+c1v2nRYP07y9pj1C0BDmAEMQNN8M8meSX7elgvj448/PieddFJWrVqldwEAAGisa6+9Np/4xCfaFP4uTXJokgMj/AWgQcwABqCJbk3yoiTvT/WO4GlNP6BLLrkkN954Yw455JA8/vGP18MAAAA0xsqVK3PaaafloosuatNhXZzk4CS/08MANI0ZwAA01ViS45I8I0krHi1euHBhPvvZz+a73/1u1qxZo4cBAADoezfffHOOPPLINoW/K5McnuQvIvwFoKHMAAag6a5N8qwkH0nyT0kmNflgxsbGcsEFF2TevHl529vepncBAADoSyMjI5k9e3Zmz56d0dHRthzWNUkOSvJbPQxAkwmAAWiD4SQfS3JOkm8kafwaynfeeWeOPvro7L333noXAACAvrJ48eJ88pOfzB133NGWQxpN8sUkf5dktR4GoOksAQ1Am/wq1ZLQX23DwaxZsyaXXXaZXgUAAKCvnHHGGW0Kf3+X5PlJPhDhLwAtIQAGoG0eTPLOJAckuVM5AAAAoKyRkZG2HMrJSZ6e5GK9CkCbCIABaKuzk+yV5AylAAAAANZyT5JXJXlrkmXKAUDbCIABaLP7kvzvJG9Islg5AAAAYOCdluQpSX6oFAC0lQAYgEHw/VRLOv1MKQAAAGAgLUnyliSvT3K/cgDQZgJgAAbFbUlenOTQJEPKAQAAAAPj/CR7JvmWUgAwCATAAAySsSQnJtknyRXKAQAAAK22MsnhSV6a5A7lAGBQCIABGERzkzx7/CJwWDkAAACgda5K8qwkn0oyqhwADBIBMACDas34ReALktyoHAAAANCa6/0jkjwzVQgMAANHAAzAoPtVkqcl+UKqJaIBAACAZro5yYuSfCxW/AJggAmAASBZkeQDSfZPskA5AAAAoFHGkpyYZM8kv1AOAAadABgA/se5SZ6S5BSlAAAAgEa4O8krkhyaZLlyAIAAGAD+2JIkByX56/F/BgAAAPrTt5PskeRHSgEA/0MADAAP7dQkT01ynlIAAABAX1mU5I1J3pxksXIAwB8SAAPAw5uf5GWxjBQAAAD0i/OSPC3Jd5UCAB6aABgAHtlYkhOT7Jnkl8oBAAAAtViR5IOpHtSerxwA8PAEwACwfm5O8sIkhydZrRwAAADQM5cleXqS41I9qA0APAIBMACsvzVJPpXkeUnmKQcAAAB01XCSf0ry3CTXKwcArB8BMABsuMtTPXn8qSSjygEAAADFXZdk3yRHpnogGwBYTwJgANg4K1MtB/2yJHcoBwAAABQxluTEJM9McoVyAMCGEwADQGd+kuSp4xenAAAAwMa7Pcl+SQ5NMqQcALBxBMAA0LkHxi9OX5/kfuUAAACADfb9JHsl+alSAEBnBMAAUM5pSfZM8mOlAAAAgPVyX5LXJnlDksXKAQCdEwADQFl3JTkwycFJlikHAAAAPKxzUs36PV0pAKAcATAAdMc3U80GvlApAAAA4A8MJflgkgOS3KkcAFCWABgAuueWJC9O8i9JRpQDAAAAckmSpyY5LsmYcgBAeQJgAOiukST/muSlqd5rBAAAAIPq80n+IsnNSgEA3SMABoDeuGD8ItfSVgAAAAyijyT5cJJhpQCA7hIAA0DvzEv1fqPlSgEAAMAA+WiSo5QBAHpDAAwAvXVVkncqAwAAAAPiB6lejQQA9IgAGAB679vjF8AAAADQZouTHJpkTCkAoHcEwABQjw8mWakMAAAAtNi/JLlXGQCgtwTAAFCP25KcogwAAAC01L1JvqYMANB7AmAAqM9xSgAAAEBLfSXJCmUAgN4TAANAfa5Jcp0yAAAA0EL/qQQAUA8BMADU60wlAAAAoGXuTfJbZQCAegiAAaBev1YCAAAAWua3ScaUAQDqIQAGgHpdowQAAAC0zDwlAID6CIABoF73KQEAAAAts0gJAKA+AmAAqNcDSgAAAEDLLFMCAKiPABgA6jWqBAAAALjWBQBKEQADAAAAAAAAtIQAGAAAAAAAAKAlBMAAAAAAAAAALSEABgAAAAAAAGgJATAAAAAAAABASwiAAQAAAAAAAFpCAAwAAAAAAADQEgJgAAAAAAAAgJYQAAMAAAAAAAC0hAAYAAAAAAAAoCUEwAAAAAAAAAAtIQAGAAAAAAAAaAkBMAAAAAAAAEBLCIABAAAAAAAAWkIADAAAAAAAANASAmAAAAAAAACAlhAAAwAAAAAAALSEABgAAAAAAACgJQTAAAAAAAAAAC0hAAYAAAAAAABoCQEwAAAAAAAAQEsIgAEAAAAAAABaQgAMAAAAAAAA0BICYAAAAAAAAICWEAADAAAAAAAAtIQAGAAAAAAAAKAlBMAAAAAAAAAALSEABgAAAAAAAGgJATAAAAAAAABASwiAAQAAAAAAAFpCAAwAAAAAAADQEgJgAAAAAAAAgJYQAAMAAAAAAAC0hAAYAAAAAAAAoCUEwAAAAAAAAAAtIQAGAAAAAAAAaAkBMAAAAAAAAEBLCIABAAAAAAAAWkIADAAAAAAAANASAmAAAAAAAACAlhAAAwAAAAAAALSEABgAAAAAAACgJQTAAAAAAAAAAC0hAAYAAAAAAABoCQEwAAAAAAAAQEsIgAEAAAAAAABaQgAMAAAAAAAA0BICYAAAAAAAAICWEAADAAAAAAAAtIQAGAAAAAAAAKAlBMAAAAAAAAAALSEABgAAAAAAAGgJATAAAAAAAABASwiAAQAAAAAAAFpCAAwAAAAAAADQEgJgAAAAAAAAgJYQAAMAAAAAAAC0hAAYAAAAAAAAoCUEwAAAAAAAAAAtIQAGAAAAAAAAaAkBMAAAAAAAAEBLCIABAAAAAAAAWkIADAAAAAAAANASAmAAAAAAAACAlhAAAwAAAAAAALSEABgAAAAAAACgJQTAAAAAAAAAAC0hAAYAAAAAAABoCQEwAAAAAAAAQEsIgAEAAAAAAABaQgAMAAAAAAAA0BICYAAAAAAAAICWEAADAAAAAAAAtIQAGAAAAAAAAKAlBMAAAAAAAAAALSEABgAAAAAAAGgJATAAAAAAAABASwiAAQAAAAAAAFpCAAwAAAAAAADQEgJgAAAAAAAAgJYQAAMAAAAAAAC0hAAYAAAAAAAAoCUEwAAAAAAAAAAtIQAGAAAAAAAAaAkBMAAAAAAAAEBLCIABAAAAAAAAWkIADAAAAAAAANASAmAAAAAAAACAlhAAAwAAAAAAALSEABgAAAAAAACgJQTAAAAAAAAAAC0hAAYAAAAAAABoCQEwAAAAAAAAQEtMVgIAaLdFixblnHPOUQgAAACyaNEiRQCAlpugBABQq0lJ1igDAAAALfLhJJ9XBgCohyWgAQAAAAAAAFpCAAwAAAAAAADQEgJgAAAAAAAAgJYQAAMAAAAAAAC0hAAYAAAAAAAAoCUEwAAAAAAAAAAtIQAGAAAAAAAAaAkBMAAAAAAAAEBLCIABAAAAAAAAWkIADAAAAAAAANASAmAAAAAAAACAlhAAAwAAAAAAALSEABgAAAAAAACgJQTAAAAAAAAAAC0hAAYAAAAAAABoCQEwAAAAAAAAQEsIgAEAAAAAAABaQgAMAAAAAAAA0BICYAAAAAAAAICWEAADAAAAAAAAtIQAGAAAAAAAAKAlJisBANRqLMlPlAEAAIAWuV0JAAAAAAAAAAAAAAAAAAAAAAAAAAAAAAAAAAAAAAAAAAAAAAAAAAAAAAAAAOD/t3fn0bZV9YHvv3SXRkRUFBUVoxgNFYltiIlGo6hlELFJbBEuVJqqvCRW5dVIn5jmpZK8quSlYr1KqfGC2CuGiqCoqBibRI1tBNTYxWCDiChIL3DfH/s4csOjuc1ae6+99+czxhr7sM8+v7nWb85z2Hf/1pwTAAAAAAAAAAAAAAAAAAAAAAAAAAAAAAAAAAAAAAAAAAAAAAAAAAAAAAAAAAAAAAAAAAAAAAAAAAAAAAAAAAAAAAAAAAAAAAAAAAAAAAAAAAAAAAAAAAAAAAAAAAAAAAAAAAAAAAAAAAAAAAAAAAAAAAAAAAAAAAAAAAAAAAAAAAAAAAAAAAAAAAAAAAAAAAAAAAAAAAAAAAAAAAAAAAAAAAAAAAAAAAAAAAAAAAAAAAAAAAAAAAAAAAAAAAAAAAAAAAAAAAAAAAAAAAAAAAAAAAAAAAAAAAAAAAAAAAAAAAAAAAAAAAAAAAAAAAAAAAAAAAAAAAAAAAAAAAAAAAAAAAAAAAAAAAAAAAAAAAAAAAAAAAAAAAAAAAAAAAAAAAAAAAAAAAAAAAAAAAAAAAAAAAAAAAAAAAAAAAAAAAAAAAAAAAAAAAAAAAAAAAAAAAAAAAAAAAAAAAAAAAAAAAAAAAAAAAAAAAAAAAAAAAAAAAAAAAAAAAAAAAAAAAAAAAAAAAAAAAAAAAAAAAAAAAAAAAAAAAAAAAAAAAAAAAAAAAAAAAAAAAAAAAAAAAAAAAAAAAAAAAAAAAAAAAAAAAAAAAAAAAAAAAAAAAAAAAAAAAAAAAAAAAAAAAAAAAAAAAAAAAAAAAAAAAAAAAAAAAAAAAAAAAAAAAAAAAAAAAAAAAAAAAAAAAAAAAAAAAAAAAAAAAAAAAAAAAAAAAAAAAAAAAAAAAAAAAAAAAAAAAAAAAAAAAAAAAAAAAAAAAAAAAAAAAAAAAAAAAAAAAAAAAAAAAAAAAAAAAAAAAAAAAAAAAAAAAAAAAAAAAAAAAAAAAAAAAAAAAAAAAAAAAAAAAAAAAAAAAAAAAAAAAAAAAAAAAAAAAAAAAAAAAAAAAAAAAAAAAAAAAAAAAAAAAAAAAAAAAAAAAAAAAAAAAAAAAAAAAAAAAAAAAAAAAAAAAAAAAAAAAAAAAAAAAAAAAAAAAAAAAAAAAAAAAAAAAAAAAAAAAAAAAAAAAAAAAAAAAAAAAAAAAAAAAAAAAAAAAAAAAAAAAAAAAAAAAAAAAAAAAAAAAAAAAAAAAAAAAAAAAAAAAAAAAAAAAAAAAAAAAAAAAAAAAAAAAAAAAAAAAAAAAAAAAAAAAAAAAAAAAAAAAAAAAAAAAAAAAAAAAAAAAAAAAAAAAAAAAAAAAAAAAAAAAAAAAAAAAAAAAAAAAAAAAAAAAAAAAAAAAAAAAAAAAAAAAAAAAAAAAAAAAAAAAAAAAAAAAAAAAAAAAAAAAAAAAAAAAAAAAAAAAAAAAAAAAAAAAAAAAAAAAAAAAAAAAAAAAAAAAAAAAAAAAAAAAAAAAAAAAAAAAAAAAAAAAAAAAAAAAAAAAAAAAAAAAAAAAAAAAAAAAAAAAAAAAAAAAAAAAAAAAAAAAAAAAAAAAAAAAAAAAAAAAAAAAAAAAAAAAAAAAAAAAAAAAAAAAAAAAAAAAAAAAAAAAAAAAAAAAAAAAAAAAAAAAAAAAAAAAAAAAAAAAAAAAAAAAAAAAAAAAAAAAAAAAAAAAAAAAAAAAAAAAAAAAAAAAAAAAAAAAAAAAAAAAAAAAAAAAAAAAAAAAAAAAAAAAAAAAAAAAAAAAAAAAAAAAAAAAAAAAAAAAAAAAAAAAAAAAAAAAAAAAAAAAAAAAAAAAAAAAAAAAAAAAAAAAAAAAAAAAAAAAAAAAAAAAAAAAAAAAAAAAAAAAAAAAAAAAAAAAAAAAAAAAAAAAAAAAAAAAAAAAAAAAAAAAAAAAAAAAAAAAAAAAAAAAAAAAAAAAAAAAAAAAAAAABYUrtJAQAAsKIOrZ4wUuzXV9+UYpbUpmrzSLHfW50vxQAAAAAAAAztydXWkY7DpZcldsCIvxs/J70AAACLtbsUAAAAAAAAAKwGBWAAAAAAAACAFaEADAAAAAAAALAiFIABAAAAAAAAVoQCMAAAAAAAAMCKUAAGAAAAAAAAWBEKwAAAAAAAAAArQgEYAAAAAAAAYEXsKQUAAJN1evWUBbV9QXWv6gbdsDSOqs5eUNv/o/oFXQCwVg6oLl3zHFxZXbPx9VXV1Tf6+tLqGxvHJdsc36j+aeO4zFACAGBoCsAAANyUe1SPq94qFUtjsxQAwFztt3FU3X4nY2xbDP5C9anqI9V51bVSDADAzlAABgDg5pyUAvCyuF31VGkAgKVzx43jITd6/trq3OqjG8ffVh/P6iwAAGwHBWAAAG7OU6qDqoulYvKe0b/MQAIAlt+m6sEbx3ddXJ1Tvb3ZTXpflCYAAG7K7lIAAMDN2FQ9WxqWwmYpAICVd1D1k9WLmi0ZfX71guo+UgMAwLYUgAEAuCU/JQWT973Vw6UBANbO91W/U322+lD1/OrO0gIAgAIwAAC35Ij+9dKDTM/majdpAIC19pDqz6oLqlOr+0sJAMD6UgAGAODWnCgFk34/f5w0AAAbNlXPq86rzqgeJiUAAOtHARgAgFvz3GofaZikx1X3kAYA4EZ2r55UfbA6vbqXlAAArNebQQAAuCW3r54iDZO0WQoAgFvxlOr8ZvsF7y0dAACrTwEYAIDtcZIUTM6BKcwDANtn3+oF1ceqH5UOAIDVpgAMAMD2eGx1qDRMyrOzNDcAsGPuX72z2WxgnwsCAKyoPaUAAIDtsHuz5YZ/Vyom4wQpuFVvr+4zUuwvSS9L7PIRfzcull6YvD2azQY+YuP93WVSAgAAAADzcXq1dULHFzJTZCoOn9jYeKEuAVg7B0zs/0WOnTs+XR1mOAMArBYf4AEAsL3uVT1GGiZhsxQAAAP43uqcxlsVAACABVAABgBgR5woBQu3Z3WcNAAAA7l7isAAACtFARgAgB3xtOr20rBQj6/uKg0AwIDuUb2zOlQqAACWnwIwAAA7Yp/q2dKwUGZhAwBjuGd1WrW3VAAALDcFYAAAdtRJUrAwd6iOkQYAYCQPrf6bNAAALLc9pQAAgB30kOoHqo9Lxdw9O7NyAFgPn6yeNPFz3LfZ6ihVm6rbVAc02y7jDhvHIdW9mi2tfEi1xxLk/uer91avNQwBAJaTAjAAADvjpOr50jB3m6UAgDVxTfX5FbumvarDqyOa3Uz30OrI/qWIPCUvrv6mutBQBAAAAIDhnF5tHfD4yoCxLs5M1Hl7wEB9d/1G/w05tl6oewDWzgED/7/kxsdH1ySP+1Q/Vv1+de7IOd3R4y8NcwCA5WQPYACA9fGp6p8HinXH6lgpnavNA8X5aHW1dALAJFxdnVP9VvX9zW74+v1mN+4t2onVg3QRAMDyUQAGAFgfm6ozB4x3kpTOzV7VcweKdVazWVsAwPScW/129T3VcdWHF3guu1d/qksAAJaPAjAAwPrYVJ0xYLyjqntI61w8sTp4oFhvq/aXUgCYtGurV1YPq57Z4vZDfnT1KN0BALBcFIABANbHpmZLDF4+ULw9qhOkdS42DxTnm9X51W5SCgBLYWv1uurw6veq6xdwDj+rGwAAlosCMADA+thUXdNsBuhQTkwxcWx3qo4eKNbZ1W2kFACWzjXVC6rHVF+ac9tPq+6sCwAAlocCMADA+ti08TjkMtD3brY0ION57jZ9t6vekv1/AWCZvbvZstDnzrHNvRtuNRIAAOZAARgAYH3svfH45uqGAeOeJLWjGmqZ7a3VW1MABoBld2H12OoTc2zzeGkHAFgeCsAAAOtjr43Hi6oPDBj36dWB0juKB1QPHCjWx6uvVLeTVgBYehc12yLi63Nq799Ud5d2AIDloAAMALA+9t7m6yGXgd63epb0juLfDRjrLRuP+0srAKyEC6rjGnZll1vyWCkHAFgOCsAAAOtj231kzxg49onSO0p/PWfAeN8tAO8ntQCwMt5WvXhObR0l3QAAy0EBGABgfWxbAD63+sKAsX+w+n4pHtTR1Z0GivXN6n0bX+8rtQCwUn67unQO7SgAAwAsCQVgAID1sWe1xzb/febA8U+S4kFtHjDWWdV1G1+bAQwAq+Xr1X+bQzt3qe4s3QAA06cADACwXsZcBvq4G8Vn5x1cPXHAeNv2tQIwAKyel1TXzqGd75VqAIDpUwAGAFgve23z9buqSwaMfafqGCkexHE36qtd8Z3+Zf/fUgAGgFX0teqNc2hHARgAYAkoAAMArJdtZ+h+p+E/KLQM9DBOGDDWe6pvbfPf9gAGgNX0mjm0cT9pBgCYPgVgAID1cuMlmk8bOP4TqkOkeZc8pHrAgPFuvNS3GcAAsJrOqW4YuY3DpBkAYPr2lAIAgLVy4wLw2c1mhx44UPw9quOrP5TqnbZ54Hg3LgCbAcwy/t06tNnNJXdsttz87TaO3bcZ11c1W9ng8ur66rLq69VXqwuaLY96nXQCK+yS6qPNbiYby4HSDAAwfQrAAADr5cYF4GubFQifN2AbJ1Z/VG2V7h22d/XsAeOdX33uRs8pADNlh1UPrR68cdy3unvDrF51Q3Xhxu/Fx6qPbxyfTGEYWB0fatwC8G2lGABg+hSAAQDWy1438dxpDVsAvm/1yOrd0r3Djmk2w3EoZ2znGFhV+1V3GSn2l5rdQLFod2w2E3ZIVzYrlM7DgdWTqqOqxzYr9o5l9+puG8dR2zz/7ert1Vuqs5rNFl51u1f3Gin2xc1mXwOL8ZmR4+8vxQAAAACw805vNot2yONBN9HOPtWlA7dziu7bKWcO3A8/NIc2tlYvnGg+nzzCtX73OHwi1/g7I1zbO0c+5+/OdH9jdfWIfbSzx8er51d3WOG/NQeMmL+f86d8bRww8u/iR6V4cv/v21r9sxQDAEzf7lIAALBWNt3Ec1c3KwoO6SeafTDM9rtr9YQB411QfeAmnt9DqlfK10eIeeBI53pI9QfNigevajbjfe8J5vSI6s+qL1enVkcaZsAS+dLI8W8jxQAA06cADACwXm5u+d/TBm7nNtUzpHuHPK9ht2g5rZveh9k2MKtljALw0EtKH9RsX/DPVr9e3XlJcrvPxu/l+6uzqwcYbsASuHzk+NdLMQDA9CkAAwCsl0038/xbGv4Dw5Oke4ecMHC8v7qZ5xWAV8uUC8B7Vb9W/VP1K80KqsvqqOoj1Yta7aWhgeV3xcjxr5JiAIDpUwAGAFgvN1cAvqp608BtPbzp7JM6dUcOnKuvVH97M9+zBPRqGWOm120HiPFDzQqm/6XVWS50z+pnmu0R/GhDD5ioK5c8PgAAA1AABgBYL5tu4XunjdDeiVK+XTYPHO/06oab+Z4ZwKtljA/iN7Xzs3V3azbb9z3V969ozu9evaNZcdvvE7BM7/WGcIUUAwBMnwIwAMB6uaUPBc9q+GLS87r5fYeZ2ad61sAxb6mYr2C1WsaaibUzs4BvV53RbL/fVR9nuzdb3voNLffS1sDqGXvVha9KMQDAcvyjFQCA9XFLxdgrqjcP3N7B1dHSfoueUh04YLyvNZt9eXMUgFfLWHsx7mgB+G7Vu9bw9/3JzfZQP8BQBCZi7ALwBVIMADB9CsAAAOvl1pYFfMMIbZ4k7bdo88Dx3lBdfwvftwfwahlrBvCOFDQPr95fPXBN++BR1Vur/QxHYAJuP3L8L0kxAMD0KQADAKyXWysAn9nwMwqfWN1V6m/S3aujBo75ilv5vhnAq2XRM4Dv12w/3HuseT/8ULWl2R7IAIv0PSPH/7wUAwBMnwIwAMB6ubX9eC9vNpNtSHs22wuY/7/jG3ZG7ueazcS8tf5gdXxnpLj7bsdr7rnx9+IuuqGqZ1a/Ig3Agt175PgflWIAgOlTAAYAWC+btuM1p43QrmWgb9rxA8d7RbX1Vl5jCejVc8MIMW+tAHxQ9c7qUOn/V/6geow0AAt02IixL68+I8UAANOnAAwAsF62pwB8RnXNwO3er/oR6f9XfngjL0PZ2q0v/1xmAK+i60eIeUsF4L2r06v7SP1N/hv7f23kCGARjhwx9sca56YjAABG+McpAADrY3sKwJdVbxuhbbOA/7XNA8d7f/XZ7XidAvDqmfcM4JdUj5D2m3Xf6pelAViAuzXuzTnnSDEAwHJQAAYAWC97befrxlgG+hnV/rqgqv028jGkV2zn6ywBvXrmOQP4Z5rPnt5XVV9qtq/1h6u/3Xj8RPX56mvVNyfcJ7/W+PtwAtzYj44c/y1SDACwHNz9DwCwXjZt5+v+urqyWaFyKPs3K3pu0Q09tbrdgPGuqV7r3wBra14F4COqPxu4nRuq86p3NVta9LMbx1e28+f3a1Zovc/G4/2qR1X3X3Cf7Fv9VnWi4QnM0dNGjH1J9QEpBgBYDj78AQBYL9tbAL60ekPDz/Q7KQXgGn755zOqb/g3wNqaxxLQ+zW7yWDfAWJfU72pelWzwu83diHWldW5G8e2DqkeWx1dPbnaZwH98pzqN9r+YjbArrhddcyI8d/YODccAQAwAktAAwCsl7124LVjFGp/uNkMvXV2z+oxA8c8eQdeawno1TPGB/I3Lpj+frs+q/az1c8326Py6c1uMvnGSDn5cnVq9cxmxeDfbDZ7bZ42Vb9oeAJz8pONe7OLG/gAAJaIAjAAwHrZbQde+zfN9t8cuv11XxL1+IHfh3+lettIY4DlMPYM4IdXz9+FWJ9rNuv9+6r/t/kXYi+p/qA6rHpptXWObf9sdVtDFBjZntUvjxj/M9V7pRkAYHkoAAMAcHO2VqeMEPf41ncZ4t2qEwaO+fLqOsN1rY25B/DezWZ97czM8WuqX2s2c/hlExin36x+qtle5JfPqc0Dq6cYosDInlvdd8T4L2q+N88AALCLFIABALglpzR8cemu1RPXNJ+PaDYLceg+Yr2NOQP4l9q5pZ8/WD24+qOmd4PCac32B/7mnNp7hiEKjOi21e+OGP/r1f+SZgCA5aIADADALflSdfYIcU9a03xuHjje31WfMkzX3lgzgA+pfn0nfvYvqh+pzp9wzj5YHV1dNYe2HtdsJjDAGP5rdeiI8f+0ukKaAQCWiwIwAAC3ZssIMY+uDl6zPN6m+smBY55seNJ4M4D/uNp/B37m+mZ7Bf9cy7Es+d9VPzOHdvaujjVMgRE8ceS/Yxc227sdAIAlowAMAMCteWN18cAx96qet2Z5fHqzZRqHcmX1OsOTxpkB/ORme0pur+ua3eDw50uWu1dUr5pDO08yTIGB/UD1mmq3Edv4P6tvSzUAwPJRAAYA4NZcU71yhLgnrlkeh77ev6ouNTxpnBnAO9r+idXpS5q//1R9a+Q2HmmYAgM6tHpzdcCIbbyj+dwgAwDACBSAAQDYHmMsA3149UNrkr/vqR41cEzLP/Nd1y+4/V9oNpN2WV3UbA/NMR1c3ddQBQbwA9X7qruN2Ma3q38v1QAAy0sBGACA7fEP1YdGiHvSmuTvhIZdovGfqncZlmxY5Azgv6j+5wrk8EXVVSO38QhDFdhFT6zeUx0ycjs/W31WugEAlpcCMAAA22uMGafPrG6z4nnbrTp+4Jgva/HL/jIdi5oB/JHql1Ykh99o/FnMP2KoAjtp/2Y327ypuu3Ibb2kerWUAwAsNwVgAAC216safobcAdVPrHjeHt1sCeihbG1WAIbvWsTNAJdVz6iuXqE8vnDk+A8yVIEdtFv19OoT1X9o2NVEbsq7ql+UdgCA5acADADA9vpWdfoIcVd9GejNA8d7V/UFw5FtbF1Amy+oPrdiefxE9ZkR439v4xdvgNWwW3V0s+03TqvuNYc2P1Y9pdW6sQcAYG0pAAMAsCO2jBDzkdVhK5qv2zabuTOkkw1DFuzc6n+s6LWdNWLs/au7Gz7ALTi4+uXq09WZ1YPn1O6nm+0vfKkuAABYDQrAAADsiHMafvbpbtWJK5qvn2zYPY4vq95gGLJgv1hdt6LXdtbI8e9n+AA3clj1H6uzqwuqP67uO8f2P1z9aHWhrgAAWB0KwAAA7IgbqlNGiHtCtccK5mvzwPFeV11pGLJAb212I8iqelfD73W+LQVgWG8HVI+o/lP1qmZL6X+m+n+qo6q95nw+51SPqS7SNQAAq2VPKQAAYAed0mz/zyFvJjykekL15hXK02HNPuQdkuWfWbQ/XvHru7rZEtcPGyn+vQ0h2G57L9HvzP7Nird7VXfcOA7aeLxndZ+N9wV3msj5bq3+e7Plpr9jqAEArB4FYAAAdtQ/V++oHjdw3BNbrQLwCc2Wtx7KP1Z/Z/ixQH/fas/+/a7zGq8AfGfDCLbb9zWbIcuwvl39dPVaqQAAWF2WgAYAYGe8dISYT246M2OGeJ99/MAxT242YwcW5U/W5Do/MWJsBWBgkc6qHpDiLwDAylMABgBgZ/x1dcnAMTdVx61Ifh7TbMnHoVxfvdywY4Euq964Jtd67oixFYCBRbioem7149UXpQMAYPUpAAMAsDOurl41QtwTVyQ/mweO97bqy4YdC3R6ddWaXOv5I8ZWAAbm6dLqBc32H36VdAAArA8FYAAAdtaWEWI+oPH23pyX21VPHTjmyYYbC/bqNbrWC6sbRop9p4bdGxzgplxS/WF1n+r3mu37CwDAGlEABgBgZ3104xjaSUuel2dU+w0Y75LWZ+ldpunS6h1rdL3XVd8YKfZe1d6GFDCSj1c/Xd2j+vUR/5YBADBxCsAAAOyKMWamPrthC6jzNvQy1q+qrjHUWKB3NyuKrpOvjRh7kyEFDOiC6s+rR1YPqv6yulJaAADWmwIwAAC74pXN9gMe0u2qpy1pPu5XPXzgmJZ/ZtHOWcNrHrMAvI8hBeyCa5vdmPOC6sjq0Or51XurrdIDAEApAAMAsGsuqf73CHGXdRnoEwaO9w/VRwwzFkwBeFiWgAZ21mXVKc32ZX9v9dUUfQEAuAl7SgEAALtoS/WsgWM+urp39fklysMe1fMGjmn2L4t2ebMbEdbNt0aMbQloYGcdUP3MTfyd/lD1/uoDG8dXpQoAYL2ZAQwAwK56R/XFgWPuVm1esjwcVd19wHjXNltiGxbp/OqGNbzuMffdNgMYGNL+zW6c+9Xq9Oor1Web7Qv8eH9zAADWkwIwAAC76oZmyxEObXOzWbXLYvPA8d5Ufd3wYsHOW9PrHrMAbCUuYGz3qX6hemt1cfWG6ieyAgEAwNpQAAYAYAinNPwswXs0m1W7DG5XHTtwTMs/MwXnrul1X6PrgRWxf/W06vXVhdWLqgdKCwDAalMABgBgCP9UnTNC3JOW5PqfXe07YLwLq7MMKybgU2t63QrAwCq6fbM9hD/abAuPR0sJAMBqUgAGAGAoW0aIeWx1xyW49s0Dx3tFdZ0hxQR8eU2vWwEYWHWPaXbz3nua7RUMAMAKUQAGAGAop1ffHDjm3tVzJ37dh1dHDhzzFMOJibhwTa/7Wl0PrIlHNNsr+C3VYdIBALAaFIABABjKVdWrR4j7UxO/7s0Dx/tgdZ7hxARcV31dGgDWwhOq86s/qvaRDgCA5aYADADAkMZYBvoB1YMner17VscNHPNkw4iJ+Fp1gzQArI29ql+pPlYdIR0AAMtrTykAAGBAH64+Xv3AwHFPqj4ywet9QnXXAeNdVb3GMGIiLpUCYIEuavluitqr2v9GX+9W3aG64zaP+038Ou5Xvb96fvUSQxEAYPkoAAMAMLQt1X8fOOZzqv9cXT2xa908cLz/XX3LEGIirpYCYIG+Uv3qil7bPtX3bBz33ni8X7MVT+46kXPct3px9aPVT/t/AgDAclEABgBgaK+s/u9q7wFj3r56auPsMbyz7lgdM3BMyz8zJddIAcAorq4+uXHc2N2qh1QPqx638bjHAs/1uOqQ6inVZboOAGA52AMYAIChfaN64whxT5rYdT67YYvcF1TvMHyYEAVggPn7SnVG9dvVw6s7V8+sTq0uX9A5/Vj1zupOugcAYDkoAAMAMIYtI8R8THWvCV3j5oHjvay6wdBhQiz3CbB4l1Svq06o7rLxeE61dc7n8ZDq3SkCAwAsBUtAAwAwhrObzWi9x4Axd29WdP2dCVzfA5p9EDqUrc0KwDAlbkhgWXyo2VYB6+Yvqz/U/WvlimYzgU+tjqh+o/qJ5jfB4/7Vmc1uyrtCdwAATJcCMAAAY7i+WUHzNweOu7n6vRZfmNo8cLz3VJ81bAB2yqHVQWt43XfQ9WvtH5otDX3/6v+qnj6ndn+w2YzkY6vrdAMAwDRZAhoAgLGc3PDLEx7abNbJIu1VPXeEXAEA7KhPNZsFfEz1z3Nq88erP5d6AIDpUgAGAGAsn6/eNULckxZ8XU+sDh4w3uXVaYYLALALzqz+TfO7qew/NCs8AwAwQQrAAACMaYwPIZ/aYvd63DxwvNc3KwIDAOyKy5vdKPez1bVzaO8l1b2kHQBgehSAAQAY02nVpQPH3Kd6zoKu507V0QPHtPwzADCkF1f/trpi5HYOrF5e7SblAADTogAMAMCYrqpeM0LcExd0Pc+tNg0Y7wvVew0TAGBg51RPrq4euZ1HVMdLNwDAtCgAAwAwti0jxHxI9cAFXMsJA8d7abXVEAEARvDO6unVdSO384fVbaUbAGA6FIABABjbB6tzR4g771nAD2zYovMN1amGBwAwojdXvztyG3etfkOqAQCmQwEYAIB5GGOf2+Oqved4DUMXnN9eXWBoAAAj+y/V2SO38QvVQVINADANCsAAAMzDy6trB455h+rYOZ3/puo5A8c82bAAAObghmY3sl0xYhv7Vf9eqgEApkEBGACAefh6dcYIcee1DPSTGnZWy6XVXxsWAMCcfLn6k5Hb+IVqH6kGAFg8BWAAAOZlywgxH1/dYw7nfsLA8V5VXWVIAABz9F+rC0eMf+fqGdIMALB4CsAAAMzLW5vNPhn6/ezmkc/74OqJA8e0/DMAMG+XVy8cuY1nSTMAwOIpAAMAMC/XVy8bIe6JI7+vPa7aa8B451V/bzgAAAuwpfrOiPGPqu4gzQAAi6UADADAPL202jpwzO+pHjXiOR8/cDyzfwGARbmwOmvE+HtVT5ZmAIDFUgAGAGCePl+9Z4S4J410vg+tjhgw3neqVxgGAMACvW7k+E+SYgCAxVIABgBg3raMEPPp1YEjxN08cLyzqq8ZAgDAAr294Vdk2dYjpBgAYLEUgAEAmLfXVd8aOOa+1bMGjrmpeubAMS3/DAAs2teqT44Y/+BmW3QAALAgCsAAAMzbVdXrR4g79DLQx1YHDRjvoupNuh8AmIB3jxz/h6UYAGBx9pQCAAAWYEv10wPHfFj1gOoTA8XbPPD5vbLZHsAADOuh1R5reN2X6np2wadHjv/Ajfc+AAAsgAIwAACL8P7q/OrwgeOeWP3SAHHuUj1+4HN7mW4HGMUXpQB22GdHjm8JaACABbIENAAAi7JlhJjHNdu7d1cd37A3S364+rguBwAm4h9Hjq8ADACwQArAAAAsyssbfknkO1XHDBBn88DndbLuBgAm5OKR4ysAAwAskAIwAACLclF15ghxj9vFn39Y9X0Dns811at1NwAwId8eOf7tq32lGQBgMRSAAQBYpDFmxj6hus0u/PxxA5/PX1eX6GoAYEK+U107chu3kWYAgMVQAAYAYJHOqr46cMx9q8fv5M/uWT1z4POx/DMAMEVXjBx/fykGAFgMBWAAABbpuurUEeI+dSd/7qjq4AHP48vV2boZAJigvUeOv58UAwAshgIwAACLtqXaOnDMJ1V77cTPPWfg8zi1ul4XAwATs1vj79FrD2AAgAVRAAYAYNH+sXrfwDFvXz1qB39mr2aF4yGdqnsBgAnat1kReExXSTMAwGIoAAMAMAVbRoj5lB18/WObFY6H8r7qU7oWAJig286hjculGQBgMRSAAQCYgtdX3x445lPasZktTxu4/ZN1KwAwUfeYQxsKwAAAC6IADADAFFzerAg8pEOqB23na/eojh2w7StGuB4AgKHce07v7wAAWAAFYAAApmKMZaB/fDtf98jqzgO2+4bqMl0KAEzUvUaOf+3GAQDAAigAAwAwFWPsmbu9BeCnDtyu5Z8BgCn7vpHjf0OKAQAWRwEYAIApGbpw+oPVQbfymt2a7Rc8lH+q3q0rAYAJ+5GR4/+jFAMALI4CMAAAU3Jqdd2A8faonnArr3lodc8B2zy5ukFXAgATdefqsJHb+Iw0AwAsjgIwAABTcmH15oFj3toy0McO2NYN1ct0IwAwYY9otgLKmMwABgBYIAVgAACmZuhloP9ts5nAN+eYAds6p/qiLgQAJuzpc2jj09IMALA4CsAAAEzNm5rNBB7KHaojb+Z796yOGLCtk3UfADBh+1VPnkM7n5JqAIDFUQAGAGBqvlO9fOCYN7cP8NEDtnFpdbruAwAm7Jhq/5HbuDB7AAMALJQCMAAAU/TSauuA8R57M88Pufzza6srdR0AMGG/OIc23j7w+zgAAHaQAjAAAFP06er9A8Y7sjrgRs/dpvqxAduw/DMAMGWPq354Du28Q6oBABZLARgAgKl66YCx9qwefaPnHlvtM1D8TzZswRoAYGi/Nad2FIABABZMARgAgKl6XXXFgPFuvAz0kwaMfYruAgAm7ITqkXNo51PVBdINALBYCsAAAEzVt6vXDxjvqG2+3q06eqC411Uv110AwEQdXP3JnNp6nXQDACyeAjAAAFO2ZcBYh1eHbPP13QaK+9bqq7oKAJig3auXVHecQ1tbq1dIOQDANN4EAgDAVL23+scB4/3YxuOPDhjzZN0EAEzUH1fHzKmtd1efkXIAgMVTAAYAYMq2NmyB9Uc2Hh81ULyLqzN0EwAwQT9T/ec5tvfnUg4AMA0KwAAATN2pzfbZHcIjNh6HmgH8qupaXQQATMzPV38xx/Y+V/21tAMATIMCMAAAU/eV6i0DxTq8OrK660DxLP8MAEzNC6oXNt/P/X6/ul7qAQCmQQEYAIBlsGXA97+/OlCsj20cAABTcKfqjdXvzLndT1evlH4AgOlQAAYAYBmcWV00UKxjB4pj9i8AMBVHV/9QHbOAtn+p4bbrAABgAArAAAAsg+9Urxgo1m4DxLi22f6/AACL9MBmW2WcWd1lAe2fUb1ZNwAATIsCMAAAy2LLhM7ljOpiXQIALMgPNlt2+cPVExZ0DpdW/4euAACYnj2lAACAJXFe9YHqyAmci+WfAYB5O6B6VvWz1YMncD7/sbpAtwAATI8CMAAAy+TkFl8A/lr1Vl0BAMzBoc1m+B5TPa7aeyLn9ZrqFN0DADBNCsAAACyTV1d/Wu23wHN4WXWdrgAABna76ohmyzsfufF46ATP87zqp3QXAMB0KQADALBMLqtOq45f4DmcohsAgO2wT7Xvxte3rQ6sDqruXN1x4/E+G8dhG9+buouqJ1dX6F4AgOlSAAYAYNlsaXEF4PdXn9QFADC6B1ZbpWFSrmi2FPXnpQIAYNp2lwIAAJbMu6vPLqjtk6UfAFhDVzWb+ftBqQAAmD4FYAAAls3WFlOIvap6rfQDAGvmiurY6p1SAQCwHBSAAQBYRi+rrp9zm39VXSr1AMAa+Wr16OpsqQAAWB4KwAAALKMvV2+bc5uWfwYA1sm51Q9VH5IKAIDlogAMAMCy2jLHtr5YnSPlAMCaeFv1iOqfpQIAYPkoAAMAsKzeWF08p7ZeVt0g5QDAiru2+s3q6Gx9AQCwtBSAAQBYVtdWr5hDO1urU6UbAFhx51YPr/6guk46AACWlwIwAADL7KVzaONvqs9JNQCwoq6v/rh6aPUR6QAAWH4KwAAALLNzq78fuY2TpRkAWFHvqH6w+tXqGukAAFgNCsAAACy7MQu0l1d/JcUAwIo5r3pGdVRm/QIArBwFYAAAlt2rq6tGiv3aZkVgAIBV8LnquOqI6vXSAQCwmhSAAQBYdt9qvFm6ln8GAJbd1urtzWb83r96ZXWDtAAArC4FYAAAVsGWEWJ+pvpbqQUAltRl1YurB1SPazbj9zppAQBYfXtKAQAAK+Cc6vPVvQeMeXKzGTMAAMviW9WZ1enVW6orpQQAYP0oAAMAsAq2VqdUvzdQvOurU6UVAFgCF1ZnNNsS453VtVICALDeFIABAFgVJ1cvqPYYINbZ1ZelFACYoM9X76veu/F4flYtAQBgGwrAAACsii9Vb6+eMECsk6UTAFiwb1Sfrj658Xhe9YGN5wEA4GYpAAMAsEq2tOsF4EuqN0olADCSb28cF1Vfrb6+cXz36y80K/peLFUAAOyM3aQAAGCyDq5uM3DMy1rtDxP3rO65izGuavYB7Kq6V7X7moyr/aq7jBT7S01nj8W7V5tGiHtls30l19EB1UErPHZ23/hbMIaLN/4msPrGHEer5Krq6uqG6lLpAAAAAAAAAAAAAAAAAAAAAAAAAAAAAAAAAAAAAAAAAAAAAAAAAAAAAAAAAAAAAAAAAAAAAAAAAAAAAAAAAAAAAAAAAAAAAAAAAAAAAAAAAAAAAAAAAAAAAAAAAAAAAAAAAAAAAAAAAAAAAAAAAAAAAAAAAAAAAAAAAAAAAAAAAAAAAAAAAAAAAAAAAAAAAAAAAAAAAAAAAAAAAAAAAAAAAAAAAAAAAAAAAAAAAAAAAAAAAAAAAAAAAAAAAAAAAAAAAAAAAAAAAAAAAAAAAAAAAAAAAAAAAAAAAAAAAAAAAAAAAAAAAAAAAAAAAAAAAAAAAAAAAAAAAAAAAAAAAAAAAAAAAAAAAAAAAAAAAAAAAAAAAAAAAAAAAAAAAAAAAAAAAAAAAAAAAAAAAAAAAAAAAAAAAAAAAAAAAAAAAAAAAAAAAAAAAAAAAAAAAAAAAAAAAAAAAAAAAAAAAAAAAAAAAAAAAAAAAAAAAAAAAAAAAAAAAAAAAAAAAAAAAAAAAAAAAAAAAAAAAAAAAAAAAAAAAAAAAAAAAAAAAAAAAAAAAACtb0p5AAADeUlEQVQAAAAAAAAAAAAAAAAAAAAAAAAAAAAAAAAAAAAAAAAAAAAAAAAAAAAAAAAAAAAAAAAAAAAAAAAAAAAAAAAAAAAAAAAAAAAAAAAAAAAAAAAAAAAAAAAAAAAAAAAAAAAAAAAAAAAAAAAAAAAAAAAAAAAAAAAAAAAAAAAAAAAAAAAAAAAAAAAAAAAAAAAAAAAAAAAAAAAAAAAAAAAAAAAAAAAAAAAAAAAAAAAAAAAAAAAAAAAAAAAAAAAAAAAAAAAAAAAAAAAAAAAAAAAAAAAAAAAAAAAAAAAAAAAAAAAAAAAAAAAAAAAAAAAAAAAAAAAAAAAAAAAAAAAAAAAAAAAAAAAAAAAAAAAAAAAAAAAAAAAAAAAAAAAAAAAAAAAAAAAAAAAAAAAAAAAAAAAAAAAAAAAAAAAAAAAAAAAAAAAAAAAAAAAAAAAAAAAAAAAAAAAAAAAAAAAAAAAAAAAAAAAAAAAAAAAAAAAAAAAAAAAAAAAAAAAAAAAAAAAAAAAAAAAAAAAAAAAAAAAAAAAAAAAAAAAAAAAAAAAAAAAAAAAAAAAAAAAAAAAAAAAAAAAAAAAAAAAAAAAAAAAAAAAAAAAAAAAAAAAAAAAAAAAAAAAAAAAAAAAAAAAAAAAAAAAAAAAAAAAAAAAAAAAAAAAAAAAAAAAAAAAAAAAAAAAAAAAAAAAAAAAAAAAAAAAAAAAAAAAAAAAAAAAAAAAAAAAAAAAAAAAAAAAAAAAAAAAAAAAAAAAAAAAAAAAAAAAAAAAAAAAAAAAAAAAAAAAAAAAAAAAAAAAAAAAAAAAAAAAAAAAAAAAAAAAAAAAAAAAAAAAAAAAAAAAAAAAAAAAAAAAAAAAAAAAAAAAAAAAAAAAAAAAAAAAAAAAAAAAAAAAAAAAAAAAAAAAAAAAAAAAAAAAAAAAAAAAAAAAAAAAAAAAAAAAAAAAAAAAAAAAAAAAAAAAAAAAAAAAAAAAAAAAAAAAAAAAAAAAAAAAAAAAAAAAAAAAAAAAAAAAAAAAAAAAAAAAAAAAAAAAAAAAAAAAAAAAAAAAAAAAAAAAAAAAAAAAAAAAAAAAAAAAAAAAAAAAAAAAAAAAAAAAAAAAAAAAAAAAAAAAAAAAAAAAAAAAAAAAAAAAAAAAAAAAAAAAAAAAAAAAAAAAAAAAAAAAAAAAAAAAAAAAAAAAAAGC6/j/fqMfZ+QD9iAAAACV0RVh0ZGF0ZTpjcmVhdGUAMjAyNC0wNy0wNlQxODo1MDoyOSswMDowMCh0y6oAAAAldEVYdGRhdGU6bW9kaWZ5ADIwMjQtMDctMDZUMTg6NTA6MjkrMDA6MDBZKXMWAAAAAElFTkSuQmCC;rotation=-90;clipPath=inset(30% 18.67% 39.5% 20.33%);" parent="1" vertex="1">
          <mxGeometry x="1450" y="446.35" width="552.15" height="184.05" as="geometry" />
        </mxCell>
        <mxCell id="IjYcRYmzKVPZ65RbfqFZ-8" value="&lt;font style=&quot;font-size: 70px;&quot;&gt;1&amp;nbsp; &amp;nbsp;GND&lt;span style=&quot;white-space: pre;&quot;&gt;&#x9;&lt;/span&gt;&amp;nbsp; &amp;nbsp;(VCC)&lt;/font&gt;&lt;div style=&quot;&quot;&gt;&lt;font style=&quot;font-size: 70px;&quot;&gt;2&amp;nbsp; &amp;nbsp;3V&lt;span style=&quot;white-space: pre;&quot;&gt;&#x9;&lt;/span&gt;&amp;nbsp; &amp;nbsp;(D-)&lt;/font&gt;&lt;/div&gt;&lt;div&gt;&lt;font style=&quot;font-size: 70px;&quot;&gt;3&amp;nbsp; &amp;nbsp;CLK&lt;span style=&quot;white-space: pre;&quot;&gt;&#x9;&lt;/span&gt;&amp;nbsp; &amp;nbsp;(D+)&lt;/font&gt;&lt;/div&gt;&lt;div&gt;&lt;span style=&quot;background-color: transparent; color: light-dark(rgb(0, 0, 0), rgb(255, 255, 255));&quot;&gt;&lt;font style=&quot;font-size: 70px;&quot;&gt;4&amp;nbsp; &amp;nbsp;Data&lt;span style=&quot;white-space: pre;&quot;&gt;&#x9;&lt;/span&gt;&amp;nbsp; &amp;nbsp;(ID)&lt;/font&gt;&lt;/span&gt;&lt;/div&gt;&lt;div&gt;&lt;font style=&quot;font-size: 70px;&quot;&gt;5&amp;nbsp; &amp;nbsp;NC&lt;span style=&quot;white-space: pre;&quot;&gt;&#x9;&lt;/span&gt;&amp;nbsp; &amp;nbsp;(GND)&lt;/font&gt;&lt;/div&gt;&lt;div&gt;&lt;br&gt;&lt;/div&gt;" style="text;html=1;align=left;verticalAlign=middle;whiteSpace=wrap;rounded=0;" parent="1" vertex="1">
          <mxGeometry x="1880" y="360" width="580" height="380" as="geometry" />
        </mxCell>
        <mxCell id="IjYcRYmzKVPZ65RbfqFZ-9" value="" style="endArrow=none;html=1;rounded=0;strokeWidth=11;strokeColor=#FF0000;" parent="1" edge="1">
          <mxGeometry width="50" height="50" relative="1" as="geometry">
            <mxPoint x="860" y="380" as="sourcePoint" />
            <mxPoint x="1680" y="380" as="targetPoint" />
          </mxGeometry>
        </mxCell>
        <mxCell id="IjYcRYmzKVPZ65RbfqFZ-10" value="" style="endArrow=none;html=1;rounded=0;strokeWidth=11;strokeColor=#D4D4D4;" parent="1" edge="1">
          <mxGeometry width="50" height="50" relative="1" as="geometry">
            <mxPoint x="1250" y="464" as="sourcePoint" />
            <mxPoint x="1680" y="464" as="targetPoint" />
          </mxGeometry>
        </mxCell>
        <mxCell id="IjYcRYmzKVPZ65RbfqFZ-12" value="" style="endArrow=none;html=1;rounded=0;strokeWidth=11;strokeColor=#00CC00;" parent="1" edge="1">
          <mxGeometry width="50" height="50" relative="1" as="geometry">
            <mxPoint x="1050" y="550" as="sourcePoint" />
            <mxPoint x="1680" y="549.41" as="targetPoint" />
          </mxGeometry>
        </mxCell>
        <mxCell id="IjYcRYmzKVPZ65RbfqFZ-14" value="" style="endArrow=none;html=1;rounded=0;strokeWidth=11;strokeColor=#d6b656;fillColor=#fff2cc;" parent="1" edge="1">
          <mxGeometry width="50" height="50" relative="1" as="geometry">
            <mxPoint x="1500" y="630" as="sourcePoint" />
            <mxPoint x="1680" y="630.4" as="targetPoint" />
          </mxGeometry>
        </mxCell>
        <mxCell id="IjYcRYmzKVPZ65RbfqFZ-16" value="" style="endArrow=none;html=1;rounded=0;strokeWidth=11;strokeColor=#d6b656;fillColor=#fff2cc;" parent="1" edge="1">
          <mxGeometry width="50" height="50" relative="1" as="geometry">
            <mxPoint x="1505" y="625" as="sourcePoint" />
            <mxPoint x="1505" y="709" as="targetPoint" />
          </mxGeometry>
        </mxCell>
        <mxCell id="IjYcRYmzKVPZ65RbfqFZ-15" value="" style="endArrow=none;html=1;rounded=0;strokeWidth=11;strokeColor=#000000;" parent="1" edge="1">
          <mxGeometry width="50" height="50" relative="1" as="geometry">
            <mxPoint x="1060" y="714" as="sourcePoint" />
            <mxPoint x="1681" y="714" as="targetPoint" />
          </mxGeometry>
        </mxCell>
        <mxCell id="IjYcRYmzKVPZ65RbfqFZ-17" value="&lt;font style=&quot;font-size: 70px;&quot;&gt;GND&lt;/font&gt;&lt;div&gt;&lt;span style=&quot;font-size: 70px;&quot;&gt;&lt;br&gt;&lt;/span&gt;&lt;div&gt;&lt;div&gt;&lt;font style=&quot;font-size: 70px;&quot;&gt;GPIO2&lt;/font&gt;&lt;/div&gt;&lt;div&gt;&lt;font style=&quot;font-size: 70px;&quot;&gt;&lt;br&gt;&lt;/font&gt;&lt;/div&gt;&lt;div&gt;&lt;font style=&quot;font-size: 70px;&quot;&gt;GPIO3&lt;/font&gt;&lt;/div&gt;&lt;/div&gt;&lt;/div&gt;" style="text;html=1;align=left;verticalAlign=middle;whiteSpace=wrap;rounded=0;" parent="1" vertex="1">
          <mxGeometry x="580" y="360" width="240" height="380" as="geometry" />
        </mxCell>
        <mxCell id="IjYcRYmzKVPZ65RbfqFZ-18" value="&lt;font style=&quot;font-size: 30px;&quot;&gt;100k&lt;/font&gt;" style="rounded=1;whiteSpace=wrap;html=1;strokeWidth=5;" parent="1" vertex="1">
          <mxGeometry x="900" y="684" width="120" height="60" as="geometry" />
        </mxCell>
        <mxCell id="IjYcRYmzKVPZ65RbfqFZ-19" value="" style="endArrow=none;html=1;rounded=0;exitX=0;exitY=0.5;exitDx=0;exitDy=0;strokeWidth=11;" parent="1" source="IjYcRYmzKVPZ65RbfqFZ-18" edge="1">
          <mxGeometry width="50" height="50" relative="1" as="geometry">
            <mxPoint x="930" y="744" as="sourcePoint" />
            <mxPoint x="860" y="714" as="targetPoint" />
          </mxGeometry>
        </mxCell>
        <mxCell id="IjYcRYmzKVPZ65RbfqFZ-21" value="" style="endArrow=none;html=1;rounded=0;exitX=0;exitY=0.5;exitDx=0;exitDy=0;strokeWidth=11;" parent="1" edge="1">
          <mxGeometry width="50" height="50" relative="1" as="geometry">
            <mxPoint x="1060" y="713.6800000000001" as="sourcePoint" />
            <mxPoint x="1020" y="713.6800000000001" as="targetPoint" />
          </mxGeometry>
        </mxCell>
        <mxCell id="IjYcRYmzKVPZ65RbfqFZ-22" value="&lt;font style=&quot;font-size: 30px;&quot;&gt;100k&lt;/font&gt;" style="rounded=1;whiteSpace=wrap;html=1;strokeWidth=5;" parent="1" vertex="1">
          <mxGeometry x="900" y="520" width="120" height="60" as="geometry" />
        </mxCell>
        <mxCell id="IjYcRYmzKVPZ65RbfqFZ-23" value="" style="endArrow=none;html=1;rounded=0;exitX=0;exitY=0.5;exitDx=0;exitDy=0;strokeWidth=11;" parent="1" source="IjYcRYmzKVPZ65RbfqFZ-22" edge="1">
          <mxGeometry width="50" height="50" relative="1" as="geometry">
            <mxPoint x="930" y="580" as="sourcePoint" />
            <mxPoint x="860" y="550" as="targetPoint" />
          </mxGeometry>
        </mxCell>
        <mxCell id="IjYcRYmzKVPZ65RbfqFZ-24" value="" style="endArrow=none;html=1;rounded=0;exitX=0;exitY=0.5;exitDx=0;exitDy=0;strokeWidth=11;" parent="1" edge="1">
          <mxGeometry width="50" height="50" relative="1" as="geometry">
            <mxPoint x="1060" y="549.6800000000001" as="sourcePoint" />
            <mxPoint x="1020" y="549.6800000000001" as="targetPoint" />
          </mxGeometry>
        </mxCell>
        <mxCell id="IjYcRYmzKVPZ65RbfqFZ-25" value="&lt;b style=&quot;&quot;&gt;&lt;font style=&quot;font-size: 70px; color: rgb(46, 46, 46);&quot;&gt;X&lt;/font&gt;&lt;/b&gt;" style="text;html=1;align=center;verticalAlign=middle;whiteSpace=wrap;rounded=0;" parent="1" vertex="1">
          <mxGeometry x="1218" y="449" width="60" height="30" as="geometry" />
        </mxCell>
        <mxCell id="IjYcRYmzKVPZ65RbfqFZ-26" value="&lt;font style=&quot;font-size: 70px;&quot;&gt;SHAHE&amp;nbsp; &amp;nbsp; &amp;nbsp; &amp;nbsp;(USB)&lt;/font&gt;" style="text;html=1;align=center;verticalAlign=middle;whiteSpace=wrap;rounded=0;" parent="1" vertex="1">
          <mxGeometry x="1820" y="180" width="680" height="70" as="geometry" />
        </mxCell>
        <mxCell id="IjYcRYmzKVPZ65RbfqFZ-27" value="&lt;span style=&quot;font-size: 70px;&quot;&gt;Mini-USB-OTG-Cable&lt;/span&gt;" style="text;html=1;align=center;verticalAlign=middle;whiteSpace=wrap;rounded=0;" parent="1" vertex="1">
          <mxGeometry x="900" y="170" width="750" height="70" as="geometry" />
        </mxCell>
        <mxCell id="IjYcRYmzKVPZ65RbfqFZ-28" value="&lt;span style=&quot;font-size: 70px;&quot;&gt;µC&lt;/span&gt;" style="text;html=1;align=left;verticalAlign=middle;whiteSpace=wrap;rounded=0;" parent="1" vertex="1">
          <mxGeometry x="580" y="170" width="260" height="70" as="geometry" />
        </mxCell>
      </root>
    </mxGraphModel>
  </diagram>
</mxfile>
